<?xml version="1.0" encoding="UTF-8" standalone="no"?>
<!-- Created with Inkscape (http://www.inkscape.org/) -->

<svg
   xmlns:svg="http://www.w3.org/2000/svg"
   xmlns="http://www.w3.org/2000/svg"
   xmlns:inkscape="http://www.inkscape.org/namespaces/inkscape"
   version="1.1"
   width="300"
   height="220"
   id="svg2">
  <title
     id="title3028">theatre masks</title>
  <defs
     id="defs4">
    <inkscape:path-effect
       effect="spiro"
       id="path-effect2926" />
    <inkscape:path-effect
       effect="spiro"
       id="path-effect2923" />
    <inkscape:path-effect
       effect="spiro"
       id="path-effect3683" />
    <inkscape:path-effect
       effect="spiro"
       id="path-effect3678" />
    <inkscape:path-effect
       effect="spiro"
       id="path-effect3656" />
    <inkscape:path-effect
       effect="spiro"
       id="path-effect3652" />
    <inkscape:path-effect
       effect="spiro"
       id="path-effect2875" />
    <inkscape:path-effect
       effect="spiro"
       id="path-effect2871" />
    <inkscape:path-effect
       effect="spiro"
       id="path-effect4475" />
    <inkscape:path-effect
       effect="spiro"
       id="path-effect4471" />
    <inkscape:path-effect
       effect="spiro"
       id="path-effect4467" />
  </defs>
  <g
     transform="translate(-204.30355,-362.95407)"
     id="layer1">
    <g
       transform="matrix(0.84012449,0,0,0.84282136,32.663207,91.627998)"
       id="g3004">
      <path
         d="m 238.21444,480.19391 c 3.17604,3.00344 6.97674,5.34296 11.13125,6.71097 6.34868,2.09052 13.37125,1.87182 19.6572,-0.37671 l 9.17096,-9.37187 0.0141,-0.0746 0.73604,-0.75215 c -0.14938,-0.0793 -0.30051,-0.15235 -0.44904,-0.23327 -0.057,-0.031 -0.10796,-0.0711 -0.16482,-0.10242 l 0.0135,-0.13411 c -0.0389,0.031 -0.0793,0.0596 -0.11807,0.0905 -9.59805,-5.31289 -17.25044,-14.05153 -21.24888,-24.26823 -4.0358,-10.31218 -4.3147,-22.06607 -0.76949,-32.55706 2.55689,-7.56631 6.97748,-14.36155 11.8014,-20.7268 4.82393,-6.36527 10.09994,-12.37284 14.66368,-18.92717 4.56375,-6.55431 8.43941,-13.75193 10.06575,-21.57126 1.62636,-7.81931 0.81355,-16.3592 -3.43561,-23.1217 -3.62332,-5.76645 -9.67369,-9.94778 -16.34575,-11.31306 -1.19242,-0.244 -2.40733,-0.38697 -3.62162,-0.45192 6.08895,1.53533 11.57058,5.40184 15.01399,10.65773 4.39043,6.70137 5.34949,15.25287 3.82256,23.11751 -1.52694,7.86464 -5.35986,15.12819 -9.91532,21.71847 -9.11095,13.18058 -21.43545,24.48614 -27.00244,39.51095 -4.14615,11.19003 -4.08057,23.90432 0.18625,35.04893 2.66674,6.96536 6.96706,13.27704 12.389,18.39587 3.03063,2.86122 6.40318,5.34962 10.05181,7.36268 -7.21322,3.89481 -16.03492,4.80594 -23.83421,2.23778 -9.49605,-3.12685 -17.15224,-11.30465 -19.66536,-20.98123 -0.82249,-3.16693 -1.12017,-6.4422 -0.98332,-9.70836 -0.98129,5.16241 -1.02849,10.49723 0.28773,15.56516 1.41363,5.44308 4.46535,10.39364 8.54883,14.2552 z m -8.83655,-29.82037 c 0.37152,-1.95442 0.88329,-3.89235 1.50021,-5.77622 2.24644,-6.85993 5.90527,-13.15978 9.89823,-19.17318 7.98597,-12.02683 17.6239,-23.5933 20.81589,-37.67277 0.56128,-2.47574 0.90188,-4.99259 1.03471,-7.52745 -0.10505,0.5649 -0.22676,1.12526 -0.35383,1.68569 -3.19199,14.07946 -12.81521,25.6309 -20.80116,37.65773 -3.99296,6.01343 -7.66654,12.3283 -9.91296,19.18822 -1.22817,3.75042 -2.01604,7.67864 -2.18109,11.61798 z m 33.24904,-70.14962 c 1.32502,-7.1254 0.89662,-14.58343 -1.24513,-21.50824 -2.31153,-7.47381 -6.62272,-14.31082 -12.35774,-19.63157 -1.07534,-0.99762 -2.21109,-1.9496 -3.37956,-2.83592 1.88396,-3.48545 4.56616,-6.5493 7.82268,-8.80657 4.57996,-3.17463 10.22756,-4.74131 15.78789,-4.45755 -0.40763,-0.10165 -0.82565,-0.18902 -1.23826,-0.26937 -6.6017,-1.2857 -13.70296,0.20193 -19.23061,4.03345 -2.68814,1.8633 -4.97515,4.28094 -6.75549,7.02385 -4.16432,-2.56125 -8.74868,-4.44802 -13.51482,-5.53911 -7.62583,-1.74575 -15.70088,-1.44932 -23.17952,0.84649 l -0.69561,5.85681 c 7.47865,-2.29583 15.56842,-2.60727 23.19424,-0.86153 4.09683,0.93785 8.0419,2.47988 11.71772,4.51673 -0.58613,1.53413 -1.0162,3.12615 -1.2881,4.74694 -1.11279,6.63304 0.56353,13.68041 4.53815,19.10607 l 4.96841,1.12198 c -4.1282,-5.41649 -5.93045,-12.55425 -4.86749,-19.2811 0.1695,-1.07266 0.43039,-2.12317 0.73968,-3.16335 1.64663,1.15705 3.22423,2.43497 4.69979,3.80394 5.73502,5.32074 10.0315,12.17281 12.34303,19.64661 1.56146,5.04859 2.21726,10.37467 1.94074,15.65144 z"
         id="path3002"
         style="fill:#000000;fill-opacity:1;stroke:#000000;stroke-width:0.67351693px;stroke-linecap:round;stroke-linejoin:round;stroke-opacity:1" />
      <path
         d="m 527.48242,424.68602 c -3.17604,-3.00344 -6.97674,-5.34296 -11.13125,-6.71097 -6.34868,-2.09052 -13.37125,-1.87182 -19.6572,0.37671 l -9.17096,9.37187 -0.0141,0.0746 -0.73604,0.75215 c 0.14938,0.0793 0.30051,0.15235 0.44904,0.23327 0.057,0.031 0.10796,0.0711 0.16482,0.10242 l -0.0135,0.13411 c 0.0389,-0.031 0.0793,-0.0596 0.11807,-0.0905 9.59805,5.31289 17.25044,14.05153 21.24888,24.26823 4.0358,10.31218 4.3147,22.06607 0.76949,32.55706 -2.55689,7.56631 -6.97748,14.36155 -11.8014,20.7268 -4.82393,6.36527 -10.09994,12.37284 -14.66368,18.92717 -4.56375,6.55431 -8.43941,13.75193 -10.06575,21.57126 -1.62636,7.81931 -0.81355,16.3592 3.43561,23.1217 3.62332,5.76645 9.67369,9.94778 16.34575,11.31306 1.19242,0.244 2.40733,0.38697 3.62162,0.45192 -6.08895,-1.53533 -11.57058,-5.40184 -15.01399,-10.65773 -4.39043,-6.70137 -5.34949,-15.25287 -3.82256,-23.11751 1.52694,-7.86464 5.35986,-15.12819 9.91532,-21.71847 9.11095,-13.18058 21.43545,-24.48614 27.00244,-39.51095 4.14615,-11.19003 4.08057,-23.90432 -0.18625,-35.04893 -2.66674,-6.96536 -6.96706,-13.27704 -12.389,-18.39587 -3.03063,-2.86122 -6.40318,-5.34962 -10.05181,-7.36268 7.21322,-3.89481 16.03492,-4.80594 23.83421,-2.23778 9.49605,3.12685 17.15224,11.30465 19.66536,20.98123 0.82249,3.16693 1.12017,6.4422 0.98332,9.70836 0.98129,-5.16241 1.02849,-10.49723 -0.28773,-15.56516 -1.41363,-5.44308 -4.46535,-10.39364 -8.54883,-14.2552 z m 8.83655,29.82037 c -0.37152,1.95442 -0.88329,3.89235 -1.50021,5.77622 -2.24644,6.85993 -5.90527,13.15978 -9.89823,19.17318 -7.98597,12.02683 -17.6239,23.5933 -20.81589,37.67277 -0.56128,2.47574 -0.90188,4.99259 -1.03471,7.52745 0.10505,-0.5649 0.22676,-1.12526 0.35383,-1.68569 3.19199,-14.07946 12.81521,-25.6309 20.80116,-37.65773 3.99296,-6.01343 7.66654,-12.3283 9.91296,-19.18822 1.22817,-3.75042 2.01604,-7.67864 2.18109,-11.61798 z m -33.24904,70.14962 c -1.32502,7.1254 -0.89662,14.58343 1.24513,21.50824 2.31153,7.47381 6.62272,14.31082 12.35774,19.63157 1.07534,0.99762 2.21109,1.9496 3.37956,2.83592 -1.88396,3.48545 -4.56616,6.5493 -7.82268,8.80657 -4.57996,3.17463 -10.22756,4.74131 -15.78789,4.45755 0.40763,0.10165 0.82565,0.18902 1.23826,0.26937 6.6017,1.2857 13.70296,-0.20193 19.23061,-4.03345 2.68814,-1.8633 4.97515,-4.28094 6.75549,-7.02385 4.16432,2.56125 8.74868,4.44802 13.51482,5.53911 7.62583,1.74575 15.70088,1.44932 23.17952,-0.84649 l 0.69561,-5.85681 c -7.47865,2.29583 -15.56842,2.60727 -23.19424,0.86153 -4.09683,-0.93785 -8.0419,-2.47988 -11.71772,-4.51673 0.58613,-1.53413 1.0162,-3.12615 1.2881,-4.74694 1.11279,-6.63304 -0.56353,-13.68041 -4.53815,-19.10607 l -4.96841,-1.12198 c 4.1282,5.41649 5.93045,12.55425 4.86749,19.2811 -0.1695,1.07266 -0.43039,2.12317 -0.73968,3.16335 -1.64663,-1.15705 -3.22423,-2.43497 -4.69979,-3.80394 -5.73502,-5.32074 -10.0315,-12.17281 -12.34303,-19.64661 -1.56146,-5.04859 -2.21726,-10.37467 -1.94074,-15.65144 z"
         id="path3699"
         style="fill:#000000;fill-opacity:1;stroke:#000000;stroke-width:0.67351693px;stroke-linecap:round;stroke-linejoin:round;stroke-opacity:1" />
      <path
         d="m 348.95865,390.34662 c -40.77809,-6.58018 -70.4312,15.78824 -76.83683,55.4847 -6.25522,38.76428 1.51337,74.9666 11.51782,96.89551 10.02934,21.98344 28.19005,38.49066 34.35843,39.48602 6.16838,0.99537 28.59953,-8.96173 45.03449,-26.67475 15.98409,-17.22707 34.98788,-48.55113 41.4108,-88.35465 6.40564,-39.69646 -15.78825,-70.4312 -55.48471,-76.83683 z"
         id="path4361"
         style="fill:#ffffff;fill-opacity:1;stroke:#000000;stroke-width:1.34703386;stroke-linecap:round;stroke-linejoin:round;stroke-miterlimit:4;stroke-opacity:1;stroke-dasharray:none" />
      <path
         d="m 348.95752,390.36416 c 40.77808,6.58017 61.88896,37.13844 55.48332,76.8349 -6.25522,38.76427 -25.02185,70.66956 -41.41606,88.33864 -16.43497,17.71302 -38.85668,27.67078 -45.02505,26.67542 l 30.95779,-191.84896 z"
         id="path4363"
         style="fill:#000000;fill-opacity:1;stroke:#000000;stroke-width:0;stroke-linecap:round;stroke-linejoin:round;stroke-miterlimit:4;stroke-opacity:1;stroke-dasharray:none" />
      <path
         d="m 342.76365,484.79739 c 1.20812,-2.39468 5.12691,-3.53496 13.20313,-2.35161 8.39219,1.22966 25.15504,9.68648 23.94692,12.08118 -0.80765,1.6009 -21.11207,0.16407 -28.77939,-2.5024 -7.67317,-2.66851 -9.48128,-5.02571 -8.37066,-7.22717 z"
         id="path4373"
         style="fill:#ffffff;fill-opacity:1;stroke:#ffffff;stroke-width:1.34703386;stroke-linecap:round;stroke-linejoin:round;stroke-miterlimit:4;stroke-opacity:1;stroke-dasharray:none" />
      <path
         d="m 324.90127,482.22025 c -0.35872,-2.6581 -3.68926,-5.01703 -11.70849,-6.53941 -8.33297,-1.58197 -26.93959,0.92905 -26.58087,3.58711 0.23981,1.77699 19.89797,7.05813 28.01571,7.04523 8.12394,-0.0129 10.6034,-1.64935 10.27365,-4.09293 z"
         id="path4375"
         style="fill:#000000;fill-opacity:1;stroke:#000000;stroke-width:1.34703386;stroke-linecap:round;stroke-linejoin:round;stroke-miterlimit:4;stroke-opacity:1;stroke-dasharray:none" />
      <path
         d="m 342.07426,477.006 c 0,0 14.58144,-5.97002 20.23635,-5.05751 5.40782,0.87264 23.89891,6.63077 23.89891,6.63077 0,0 -18.05476,-8.46206 -23.46259,-9.33469 -5.41667,-0.87406 -20.67267,7.76143 -20.67267,7.76143 z"
         id="path4379"
         style="fill:#ffffff;fill-opacity:1;stroke:#ffffff;stroke-width:1.34703386;stroke-linecap:round;stroke-linejoin:round;stroke-miterlimit:4;stroke-opacity:1;stroke-dasharray:none" />
      <path
         d="m 328.23574,474.77294 c 0,0 -11.96354,-10.25346 -17.61845,-11.16596 -5.40782,-0.87265 -24.77154,-1.22295 -24.77154,-1.22295 0,0 19.80003,-2.35361 25.20786,-1.48097 5.41666,0.87406 17.18213,13.86988 17.18213,13.86988 z"
         id="path4381"
         style="fill:#000000;fill-opacity:1;stroke:#000000;stroke-width:1.34703386;stroke-linecap:round;stroke-linejoin:round;stroke-miterlimit:4;stroke-opacity:1;stroke-dasharray:none" />
      <path
         d="m 335.76731,476.15238 c 1.71517,10.51021 -0.20539,18.66664 -0.76078,26.05624 -0.55539,7.38961 -0.66445,9.79993 1.32642,13.94066 1.99087,4.14071 4.43059,15.6821 1.03095,13.72892 -3.39963,-1.95319 -6.72746,-0.93092 -9.97373,-1.60942 3.44896,-21.56642 6.23122,-38.81809 8.37711,-52.11641 z"
         id="path4385"
         style="fill:#ffffff;fill-opacity:1;stroke:#ffffff;stroke-width:1.34703386;stroke-linecap:round;stroke-linejoin:round;stroke-miterlimit:4;stroke-opacity:1;stroke-dasharray:none" />
      <path
         d="m 334.43435,475.92213 c -4.93399,9.43726 -5.62212,17.82288 -7.41925,25.01212 -1.79713,7.18923 -2.45176,9.51152 -5.644,12.81586 -3.19225,3.30434 -9.13838,13.49254 -5.29694,12.70782 3.84145,-0.78473 6.67882,1.2324 9.97374,1.60942 3.50961,-21.55664 6.24058,-38.8469 8.38647,-52.14522 z"
         id="path4387"
         style="fill:#000000;fill-opacity:1;stroke:#000000;stroke-width:1.34703386;stroke-linecap:round;stroke-linejoin:round;stroke-miterlimit:4;stroke-opacity:1;stroke-dasharray:none" />
      <path
         d="m 346.71152,556.67657 c 0,0 -9.66824,-18.66734 -20.58971,-20.37811 l -1.6094,9.97364 c 10.03512,1.61933 22.19911,10.40447 22.19911,10.40447 z"
         id="path4367"
         style="fill:#ffffff;fill-opacity:1;stroke:#ffffff;stroke-width:1.34703386;stroke-linecap:round;stroke-linejoin:round;stroke-miterlimit:4;stroke-opacity:1;stroke-dasharray:none" />
      <path
         d="m 298.83759,548.95137 c 0,0 15.04914,-14.6788 25.95439,-12.8675 l -1.6094,9.97364 c -10.03512,-1.61931 -24.34499,2.89386 -24.34499,2.89386 z"
         id="path4416"
         style="fill:#000000;fill-opacity:1;stroke:#000000;stroke-width:1.34703386;stroke-linecap:round;stroke-linejoin:round;stroke-miterlimit:4;stroke-opacity:1;stroke-dasharray:none" />
      <path
         d="m 423.20116,322.9557 c -41.13729,3.72485 -64.3262,32.74084 -60.70014,72.78698 3.54089,39.10573 20.03408,72.2559 35.1582,91.02361 15.16173,18.81439 36.84512,30.30919 43.06784,29.74574 6.22272,-0.56345 25.48875,-15.76608 37.02443,-36.99784 11.21921,-20.64926 21.87247,-55.7042 18.23665,-95.85834 -3.62605,-40.04614 -32.74085,-64.32619 -72.78698,-60.70015 z"
         id="path2849"
         style="fill:#ffffff;fill-opacity:1;stroke:#000000;stroke-width:1.34703386;stroke-linecap:round;stroke-linejoin:round;stroke-miterlimit:4;stroke-opacity:1;stroke-dasharray:none" />
      <path
         d="m 423.20441,322.97297 c 41.13728,-3.72485 69.1591,20.65249 72.78515,60.69863 3.5409,39.10572 -6.73864,74.66505 -18.24571,95.84414 -11.53568,21.23175 -30.7924,36.43269 -37.01512,36.99614 L 423.20441,322.97297 z"
         id="path3366"
         style="fill:#000000;fill-opacity:1;stroke:#000000;stroke-width:0;stroke-linecap:round;stroke-linejoin:round;stroke-miterlimit:4;stroke-opacity:1;stroke-dasharray:none" />
      <path
         d="m 405.42189,470.32709 c 0,0 21.00197,18.43764 32.00687,17.39005 l -1.21473,-13.41546 c -10.12352,0.91665 -30.79214,-3.97459 -30.79214,-3.97459 z"
         id="path3694"
         style="fill:#000000;fill-opacity:1;stroke:#000000;stroke-width:1.34703386;stroke-linecap:round;stroke-linejoin:round;stroke-miterlimit:4;stroke-opacity:1;stroke-dasharray:none" />
      <path
         d="m 467.16225,464.7367 c 0,0 -17.3486,21.91015 -28.36269,22.85631 l -1.21472,-13.41545 c 10.12351,-0.91665 29.57741,-9.44086 29.57741,-9.44086 z"
         id="path3700"
         style="fill:#ffffff;fill-opacity:1;stroke:#ffffff;stroke-width:1.34703386;stroke-linecap:round;stroke-linejoin:round;stroke-miterlimit:4;stroke-opacity:1;stroke-dasharray:none" />
      <path
         d="m 441.49579,421.80173 c -0.24188,-2.67126 2.48013,-5.71228 9.95939,-8.98125 7.77189,-3.39689 26.47066,-5.09 26.71254,-2.41875 0.1617,1.7858 -17.82803,11.30963 -25.74505,13.10375 -7.92305,1.79549 -10.70453,0.75193 -10.92688,-1.70375 z"
         id="path3641"
         style="fill:#ffffff;fill-opacity:1;stroke:#ffffff;stroke-width:1.34703386;stroke-linecap:round;stroke-linejoin:round;stroke-miterlimit:4;stroke-opacity:1;stroke-dasharray:none" />
      <path
         d="m 422.9589,423.48019 c -0.24188,-2.67127 -3.46585,-5.1739 -11.41064,-7.04628 -8.25564,-1.94563 -26.95441,-0.25252 -26.71254,2.41874 0.1617,1.78579 19.56952,7.9234 27.68003,8.26628 8.1167,0.34314 10.6655,-1.18306 10.44315,-3.63874 z"
         id="path4150"
         style="fill:#000000;fill-opacity:1;stroke:#000000;stroke-width:1.34703386;stroke-linecap:round;stroke-linejoin:round;stroke-miterlimit:4;stroke-opacity:1;stroke-dasharray:none" />
      <path
         d="m 437.99523,408.62003 c 0,0 12.64844,-9.39556 18.35317,-9.9121 5.45546,-0.49398 24.79656,0.50484 24.79656,0.50484 0,0 -19.58809,-3.72655 -25.04356,-3.23257 -5.46437,0.49477 -18.10617,12.63983 -18.10617,12.63983 z"
         id="path3660"
         style="fill:#ffffff;fill-opacity:1;stroke:#ffffff;stroke-width:1.34703386;stroke-linecap:round;stroke-linejoin:round;stroke-miterlimit:4;stroke-opacity:1;stroke-dasharray:none" />
      <path
         d="m 424.03481,409.8841 c 0,0 -14.13037,-6.97082 -19.83509,-6.45428 -5.45546,0.49398 -24.3026,4.95062 -24.3026,4.95062 0,0 18.60015,-7.18438 24.05561,-7.67835 5.46438,-0.49478 20.08208,9.18201 20.08208,9.18201 z"
         id="path4156"
         style="fill:#000000;fill-opacity:1;stroke:#000000;stroke-width:1.34703386;stroke-linecap:round;stroke-linejoin:round;stroke-miterlimit:4;stroke-opacity:1;stroke-dasharray:none" />
      <path
         d="m 431.67338,409.35513 c 4.26491,9.75791 4.42439,18.13588 5.71657,25.43281 1.29219,7.29692 1.78354,9.65914 4.73795,13.17775 2.95442,3.51859 8.17671,14.09609 4.39924,13.0458 -3.77748,-1.05031 -6.74843,0.76436 -10.0616,0.91103 -2.00011,-21.74868 -3.57747,-39.15193 -4.7922,-52.56738 z"
         id="path4176"
         style="fill:#ffffff;fill-opacity:1;stroke:#ffffff;stroke-width:1.34703386;stroke-linecap:round;stroke-linejoin:round;stroke-miterlimit:4;stroke-opacity:1;stroke-dasharray:none" />
      <path
         d="m 430.32492,409.46221 c -2.44282,10.36527 -1.03254,18.66004 -0.99303,26.07038 0.0395,7.41035 -0.0195,9.82242 -2.29389,13.81446 -2.27435,3.99205 -5.51177,15.33555 -1.98439,13.62382 3.52739,-1.71173 6.77596,-0.46022 10.06159,-0.91105 -1.93893,-21.75422 -3.57554,-39.18216 -4.79026,-52.59761 z"
         id="path4190"
         style="fill:#000000;fill-opacity:1;stroke:#000000;stroke-width:1.34703386;stroke-linecap:round;stroke-linejoin:round;stroke-miterlimit:4;stroke-opacity:1;stroke-dasharray:none" />
    </g>
    <g
       transform="matrix(0.332784,-0.94300308,0.94300308,0.332784,22.673912,363.41358)"
       id="g3658" />
    <g
       transform="matrix(0.17963629,-0.9837331,0.9837331,0.17963629,-639.06192,-71.536203)"
       id="g3669" />
  </g>
</svg>
