<?xml version="1.0" encoding="UTF-8" standalone="no"?>
<!-- Created with Inkscape (http://www.inkscape.org/) -->
<svg
   xmlns:svg="http://www.w3.org/2000/svg"
   xmlns="http://www.w3.org/2000/svg"
   version="1.0"
   width="166.556"
   height="145.16901"
   viewBox="0 0 166.556 145.169"
   id="svg2"
   xml:space="preserve"><defs
   id="defs21" />
<g
   id="cigarette">
</g>
<g
   id="smoke">
	<g
   id="g6">
		<rect
   width="154.983"
   height="26"
   x="25.259001"
   y="51.167999"
   transform="matrix(0.7043,-0.7099,0.7099,0.7043,-15.1697,91.9182)"
   id="rect8" />
		<rect
   width="5.7600002"
   height="26"
   x="38.821999"
   y="112.136"
   transform="matrix(0.7043,-0.7099,0.7099,0.7043,-76.5031,66.6061)"
   id="rect10" />
		<rect
   width="5.7589998"
   height="25.999001"
   x="30.488001"
   y="120.971"
   transform="matrix(0.7044,-0.7098,0.7098,0.7044,-85.2301,63.2882)"
   id="rect12" />
		<path
   d="M 30.568,110.314 L 26.235,113.981 C 26.235,113.981 10.735,105.856 12.568,89.814 C 13.901,78.148 26.235,74.981 27.401,54.981 C 28.421,37.482 7.068,26.647 7.068,26.647 L 9.401,21.814 C 9.401,21.814 27.981,29.632 31.401,48.647 C 35.568,71.814 17.234,78.314 17.734,91.98 C 18.234,105.646 30.568,110.314 30.568,110.314 z"
   id="path14" />
		<path
   d="M 20.901,119.314 L 17.401,123.148 C 17.401,123.148 -1.265,111.148 0.068,90.648 C 1.401,70.148 13.735,68.982 14.068,55.315 C 14.401,41.647 1.901,37.981 1.901,37.981 L 4.401,33.481 C 4.401,33.481 19.901,38.814 19.401,55.148 C 18.901,71.482 7.068,70.981 5.401,90.481 C 3.734,109.981 20.901,119.314 20.901,119.314 z"
   id="path16" />
		<path
   d="M 38.901,60.481 L 44.234,55.481 C 44.234,55.481 44.859,37.148 32.109,22.648 C 20.958,9.967 3.234,5.648 3.234,5.648 L 1.401,10.648 C 1.401,10.648 13.416,11.783 26.734,24.815 C 42.234,39.981 38.901,60.481 38.901,60.481 z"
   id="path18" />
	</g>
</g>
</svg>