<?xml version="1.0" encoding="UTF-8" standalone="no"?>
<svg
   xmlns:dc="http://purl.org/dc/elements/1.1/"
   xmlns:cc="http://creativecommons.org/ns#"
   xmlns:rdf="http://www.w3.org/1999/02/22-rdf-syntax-ns#"
   xmlns:svg="http://www.w3.org/2000/svg"
   xmlns="http://www.w3.org/2000/svg"
   xmlns:sodipodi="http://sodipodi.sourceforge.net/DTD/sodipodi-0.dtd"
   xmlns:inkscape="http://www.inkscape.org/namespaces/inkscape"
   version="1.1"
   x="0px"
   y="0px"
   viewBox="0 0 100 125"
   enable-background="new 0 0 100 100"
   xml:space="preserve"
   id="svg2"
   inkscape:version="0.48.5 r10040"
   width="100%"
   height="100%"
   sodipodi:docname="Noun_11637_cc.svg"><metadata
     id="metadata126"><rdf:RDF><cc:Work
         rdf:about=""><dc:format>image/svg+xml</dc:format><dc:type
           rdf:resource="http://purl.org/dc/dcmitype/StillImage" /></cc:Work></rdf:RDF></metadata><defs
     id="defs124" /><sodipodi:namedview
     pagecolor="#ffffff"
     bordercolor="#666666"
     borderopacity="1"
     objecttolerance="10"
     gridtolerance="10"
     guidetolerance="10"
     inkscape:pageopacity="0"
     inkscape:pageshadow="2"
     inkscape:window-width="1506"
     inkscape:window-height="626"
     id="namedview122"
     showgrid="false"
     inkscape:zoom="1.888"
     inkscape:cx="50"
     inkscape:cy="62.5"
     inkscape:window-x="-1"
     inkscape:window-y="-1"
     inkscape:window-maximized="0"
     inkscape:current-layer="svg2" /><g
     id="g3177"><path
       clip-rule="evenodd"
       d="M 49.999,0 C 22.385,0 0,22.386 0,50 0,77.615 22.385,100 49.999,100 77.614,100 100,77.615 100,50 100,22.386 77.614,0 49.999,0 z M 68,91.252 67.999,69.121 v -51.62 c -6.628,0 -12,5.372 -12,11.999 l 0.014,39.621 -0.014,5.38 c 1.657,0 3,1.343 3,3 0,0 0,11.188 0,16.599 -2.908,0.59 -5.918,0.9 -9,0.9 C 48.991,95 47.991,94.964 47,94.898 L 46.999,56.482 c 3.314,0 6,-2.687 6,-6 L 53,19.002 c 0,-0.828 -0.672,-1.5 -1.501,-1.5 -0.828,0 -1.5,0.672 -1.5,1.5 v 27 c 0,0.828 -0.671,1.5 -1.5,1.5 -0.828,0 -1.5,-0.672 -1.5,-1.5 v -27 c 0,-0.828 -0.671,-1.5 -1.5,-1.5 -0.828,0 -1.499,0.672 -1.499,1.5 v 27 c 0,0.828 -0.672,1.5 -1.501,1.5 -0.828,0 -1.5,-0.672 -1.5,-1.5 v -27 c 0,-0.828 -0.671,-1.5 -1.5,-1.5 -0.828,0 -1.5,0.672 -1.5,1.5 v 27 c 0,0.828 -0.671,1.5 -1.5,1.5 -0.828,0 -1.5,-0.672 -1.5,-1.5 v -27 c 0,-0.828 -0.671,-1.5 -1.499,-1.5 -0.829,0 -1.501,0.672 -1.501,1.5 v 31.48 c 0,3.313 2.687,6 6,6 V 93.38 C 18.973,88.128 4.999,70.697 4.999,50 4.999,25.147 25.146,5 49.999,5 74.853,5 95,25.147 95,50 95,68.453 83.892,84.308 68,91.252 z"
       id="path116"
       inkscape:connector-curvature="0"
       style="fill-rule:evenodd" /><text
       id="text118"
       font-family="'Helvetica Neue', Helvetica, Arial-Unicode, Arial, Sans-serif"
       font-weight="bold"
       font-size="5px"
       fill="#000000"
       y="115"
       x="0">Created by Federico Panzano</text>
<text
       id="text120"
       font-family="'Helvetica Neue', Helvetica, Arial-Unicode, Arial, Sans-serif"
       font-weight="bold"
       font-size="5px"
       fill="#000000"
       y="120"
       x="0">from the Noun Project</text>
</g></svg>