<svg xmlns="http://www.w3.org/2000/svg" xmlns:xlink="http://www.w3.org/1999/xlink" version="1.1" x="0px" y="0px" viewBox="0 0 100 125" enable-background="new 0 0 100 100" xml:space="preserve"><g><path d="M95.936,93.019H76.557h-1.322v-1.32v-19.38c0-0.728-0.594-1.321-1.32-1.321H54.273h-1.32v-1.321V50.297   c0-0.727-0.594-1.321-1.322-1.321H32.252h-1.321v-1.321v-19.6c0-0.727-0.595-1.321-1.321-1.321H4.064   c-0.727,0-1.321,0.594-1.321,1.321v3.524c0,0.727,0.595,1.321,1.321,1.321h19.379h1.322v1.321v19.599   c0,0.727,0.594,1.321,1.321,1.321h19.379h1.321v1.322v19.379c0,0.727,0.595,1.321,1.321,1.321h19.64h1.32v1.321v19.379   c0,0.728,0.596,1.322,1.322,1.322h25.545c0.727,0,1.322-0.595,1.322-1.322v-3.522C97.258,93.613,96.662,93.019,95.936,93.019z"/><circle cx="66.633" cy="7.913" r="7.098"/><path d="M51.119,26.215l6.449,3.559l6.449,3.558c0.637,0.351,1.51,0.159,1.939-0.427l1.51-2.059l2.293-3.124l1.703,5.377   l1.305,4.117v0l0.4,1.259l-6.27,3.895l-5.146,3.196c-0.619,0.384-1.123,1.292-1.123,2.019l0.004,9.177v9.179   c0,0.727,0.596,1.32,1.322,1.32h1.982l1.982-0.001c0.727,0,1.32-0.595,1.32-1.321l-0.002-7.337l-0.002-8.66l3.703-2.245l2.572-1.56   h0.002l1.129-0.685l4.098,14.114l0.072,0.251c0.203,0.697,0.875,1.578,1.496,1.956l6.246,3.806l6.246,3.807   c0.619,0.378,1.438,0.18,1.816-0.44l2.062-3.386c0.377-0.62,0.18-1.437-0.441-1.815l-5.043-3.073l-5.041-3.073   c-0.002,0-0.002,0-0.002,0l-1.127-0.687l-4.648-16.108l-4.281-14.838c0-0.001,0-0.001,0-0.002l-0.365-1.267l1.301,0.227l0,0   l1.441,0.25l2.744,0.477l2.25,5.142l1.721,3.931c0.291,0.666,1.074,0.972,1.74,0.681l1.814-0.795l1.816-0.794   c0.666-0.292,0.973-1.075,0.682-1.74l-2.434-5.558l-2.432-5.557c-0.293-0.666-1.117-1.308-1.834-1.426l-6.881-1.138l-5.197-0.86   c-1.9-0.187-3.713,0.501-4.805,1.957l-3.588,4.83c0,0.001-0.002,0.001-0.002,0.002l-0.785,1.058l-5.064-2.794l-3.908-2.156   c-0.635-0.351-1.443-0.118-1.795,0.518l-0.957,1.737l-0.958,1.735C50.25,25.057,50.483,25.864,51.119,26.215z"/></g><text x="0" y="115" fill="#000000" font-size="5px" font-weight="bold" font-family="'Helvetica Neue', Helvetica, Arial-Unicode, Arial, Sans-serif">Created by Nathan Driskell</text><text x="0" y="120" fill="#000000" font-size="5px" font-weight="bold" font-family="'Helvetica Neue', Helvetica, Arial-Unicode, Arial, Sans-serif">from the Noun Project</text></svg>