<?xml version="1.0" encoding="UTF-8"?>
<!DOCTYPE svg PUBLIC "-//W3C//DTD SVG 1.1//EN" "http://www.w3.org/Graphics/SVG/1.1/DTD/svg11.dtd"><svg version="1.1" viewBox="0 0 2380 2350" preserveAspectRatio="xMidYMid" fill-rule="evenodd" xmlns="http://www.w3.org/2000/svg" xmlns:xlink="http://www.w3.org/1999/xlink"><g visibility="visible" id="Default"><desc>Master slide</desc></g><g visibility="visible" id="page1"><desc>Slide</desc><g><desc>Drawing</desc><g><g style="stroke:none;fill:rgb(0,0,0)"><path d="M 1266,1543 L 1297,1533 1326,1520 1340,1513 1353,1505 1365,1496 1377,1488 1388,1478 1399,1468 1409,1458 1419,1447 1428,1435 1436,1423 1444,1410 1451,1397 1465,1367 1477,1330 1490,1287 1501,1238 1522,1120 1539,977 1564,763 1575,688 1581,659 1586,635 1592,614 1598,594 1606,575 1616,557 1627,540 1638,524 1652,510 1666,496 1682,484 1698,474 1716,465 1736,457 1756,451 1778,447 1800,445 1824,444 1838,444 1853,445 1868,447 1884,449 1916,454 1949,462 1949,508 1942,507 1936,507 1925,507 1919,507 1912,508 1906,509 1900,511 1894,513 1888,516 1882,519 1877,523 1871,527 1866,532 1861,537 1856,542 1846,555 1836,570 1832,579 1827,589 1818,614 1810,645 1802,682 1786,773 1772,888 1759,993 1745,1082 1731,1155 1723,1185 1716,1211 1708,1235 1698,1259 1687,1283 1675,1306 1662,1330 1647,1353 1632,1376 1615,1399 1598,1422 1580,1443 1561,1462 1542,1480 1523,1497 1503,1512 1483,1526 1463,1538 1442,1549 1420,1560 1397,1570 1372,1579 1347,1587 1321,1595 1266,1608 1266,2118 1133,2118 1133,1608 1076,1594 1049,1586 1023,1577 998,1567 973,1557 950,1545 928,1533 907,1520 887,1506 867,1490 848,1473 830,1455 812,1435 795,1414 779,1392 763,1369 749,1346 735,1323 723,1300 711,1276 701,1253 691,1230 683,1206 675,1180 668,1149 653,1074 639,981 625,869 612,761 597,676 589,641 580,611 572,587 567,578 563,569 553,555 543,542 538,536 533,531 528,527 522,523 517,519 511,516 505,513 500,511 494,509 488,508 481,507 475,507 463,507 457,507 450,508 450,462 483,454 515,449 531,447 546,445 561,444 575,444 598,445 621,447 642,451 663,457 682,465 700,474 716,484 732,496 746,510 760,524 772,540 782,557 792,575 800,594 808,614 814,635 820,659 825,686 836,755 846,841 856,944 874,1110 885,1180 897,1242 909,1296 922,1341 937,1379 944,1394 952,1408 969,1432 987,1454 1007,1474 1029,1492 1052,1508 1077,1522 1104,1533 1133,1543 1133,444 1266,444 1266,1543 Z"/></g><g/></g></g><g><desc>Drawing</desc><g><g/></g></g><g><desc>Drawing</desc><g><g><g style="font-family:Arial;font-size:635;font-weight:400"><g style="stroke:none;fill:rgb(0,0,0)"/></g></g></g></g></g></svg>