<?xml version="1.0" encoding="UTF-8" standalone="no"?>
<!-- Created with Inkscape (http://www.inkscape.org/) -->

<svg
   xmlns:dc="http://purl.org/dc/elements/1.1/"
   xmlns:cc="http://creativecommons.org/ns#"
   xmlns:rdf="http://www.w3.org/1999/02/22-rdf-syntax-ns#"
   xmlns:svg="http://www.w3.org/2000/svg"
   xmlns="http://www.w3.org/2000/svg"
   xmlns:sodipodi="http://sodipodi.sourceforge.net/DTD/sodipodi-0.dtd"
   xmlns:inkscape="http://www.inkscape.org/namespaces/inkscape"
   width="1080"
   height="1080"
   id="svg2"
   version="1.1"
   inkscape:version="0.47 r22583"
   sodipodi:docname="Scalpel.svg">
  <defs
     id="defs4">
    <inkscape:perspective
       sodipodi:type="inkscape:persp3d"
       inkscape:vp_x="0 : 526.18109 : 1"
       inkscape:vp_y="0 : 1000 : 0"
       inkscape:vp_z="744.09448 : 526.18109 : 1"
       inkscape:persp3d-origin="372.04724 : 350.78739 : 1"
       id="perspective10" />
    <inkscape:perspective
       id="perspective2820"
       inkscape:persp3d-origin="0.5 : 0.33333333 : 1"
       inkscape:vp_z="1 : 0.5 : 1"
       inkscape:vp_y="0 : 1000 : 0"
       inkscape:vp_x="0 : 0.5 : 1"
       sodipodi:type="inkscape:persp3d" />
    <inkscape:perspective
       id="perspective2836"
       inkscape:persp3d-origin="0.5 : 0.33333333 : 1"
       inkscape:vp_z="1 : 0.5 : 1"
       inkscape:vp_y="0 : 1000 : 0"
       inkscape:vp_x="0 : 0.5 : 1"
       sodipodi:type="inkscape:persp3d" />
    <inkscape:perspective
       id="perspective2869"
       inkscape:persp3d-origin="0.5 : 0.33333333 : 1"
       inkscape:vp_z="1 : 0.5 : 1"
       inkscape:vp_y="0 : 1000 : 0"
       inkscape:vp_x="0 : 0.5 : 1"
       sodipodi:type="inkscape:persp3d" />
    <inkscape:perspective
       id="perspective2899"
       inkscape:persp3d-origin="0.5 : 0.33333333 : 1"
       inkscape:vp_z="1 : 0.5 : 1"
       inkscape:vp_y="0 : 1000 : 0"
       inkscape:vp_x="0 : 0.5 : 1"
       sodipodi:type="inkscape:persp3d" />
    <inkscape:perspective
       id="perspective2899-4"
       inkscape:persp3d-origin="0.5 : 0.33333333 : 1"
       inkscape:vp_z="1 : 0.5 : 1"
       inkscape:vp_y="0 : 1000 : 0"
       inkscape:vp_x="0 : 0.5 : 1"
       sodipodi:type="inkscape:persp3d" />
    <inkscape:perspective
       id="perspective2899-9"
       inkscape:persp3d-origin="0.5 : 0.33333333 : 1"
       inkscape:vp_z="1 : 0.5 : 1"
       inkscape:vp_y="0 : 1000 : 0"
       inkscape:vp_x="0 : 0.5 : 1"
       sodipodi:type="inkscape:persp3d" />
    <inkscape:perspective
       id="perspective2941"
       inkscape:persp3d-origin="0.5 : 0.33333333 : 1"
       inkscape:vp_z="1 : 0.5 : 1"
       inkscape:vp_y="0 : 1000 : 0"
       inkscape:vp_x="0 : 0.5 : 1"
       sodipodi:type="inkscape:persp3d" />
    <inkscape:perspective
       id="perspective2996"
       inkscape:persp3d-origin="0.5 : 0.33333333 : 1"
       inkscape:vp_z="1 : 0.5 : 1"
       inkscape:vp_y="0 : 1000 : 0"
       inkscape:vp_x="0 : 0.5 : 1"
       sodipodi:type="inkscape:persp3d" />
    <inkscape:perspective
       id="perspective3020"
       inkscape:persp3d-origin="0.5 : 0.33333333 : 1"
       inkscape:vp_z="1 : 0.5 : 1"
       inkscape:vp_y="0 : 1000 : 0"
       inkscape:vp_x="0 : 0.5 : 1"
       sodipodi:type="inkscape:persp3d" />
    <inkscape:perspective
       id="perspective3042"
       inkscape:persp3d-origin="0.5 : 0.33333333 : 1"
       inkscape:vp_z="1 : 0.5 : 1"
       inkscape:vp_y="0 : 1000 : 0"
       inkscape:vp_x="0 : 0.5 : 1"
       sodipodi:type="inkscape:persp3d" />
    <inkscape:perspective
       id="perspective3065"
       inkscape:persp3d-origin="0.5 : 0.33333333 : 1"
       inkscape:vp_z="1 : 0.5 : 1"
       inkscape:vp_y="0 : 1000 : 0"
       inkscape:vp_x="0 : 0.5 : 1"
       sodipodi:type="inkscape:persp3d" />
    <inkscape:perspective
       id="perspective3455"
       inkscape:persp3d-origin="0.5 : 0.33333333 : 1"
       inkscape:vp_z="1 : 0.5 : 1"
       inkscape:vp_y="0 : 1000 : 0"
       inkscape:vp_x="0 : 0.5 : 1"
       sodipodi:type="inkscape:persp3d" />
    <inkscape:perspective
       id="perspective3776"
       inkscape:persp3d-origin="0.5 : 0.33333333 : 1"
       inkscape:vp_z="1 : 0.5 : 1"
       inkscape:vp_y="0 : 1000 : 0"
       inkscape:vp_x="0 : 0.5 : 1"
       sodipodi:type="inkscape:persp3d" />
    <inkscape:perspective
       id="perspective3776-7"
       inkscape:persp3d-origin="0.5 : 0.33333333 : 1"
       inkscape:vp_z="1 : 0.5 : 1"
       inkscape:vp_y="0 : 1000 : 0"
       inkscape:vp_x="0 : 0.5 : 1"
       sodipodi:type="inkscape:persp3d" />
    <inkscape:perspective
       id="perspective3776-5"
       inkscape:persp3d-origin="0.5 : 0.33333333 : 1"
       inkscape:vp_z="1 : 0.5 : 1"
       inkscape:vp_y="0 : 1000 : 0"
       inkscape:vp_x="0 : 0.5 : 1"
       sodipodi:type="inkscape:persp3d" />
    <inkscape:perspective
       id="perspective3913"
       inkscape:persp3d-origin="0.5 : 0.33333333 : 1"
       inkscape:vp_z="1 : 0.5 : 1"
       inkscape:vp_y="0 : 1000 : 0"
       inkscape:vp_x="0 : 0.5 : 1"
       sodipodi:type="inkscape:persp3d" />
    <inkscape:perspective
       id="perspective4557"
       inkscape:persp3d-origin="0.5 : 0.33333333 : 1"
       inkscape:vp_z="1 : 0.5 : 1"
       inkscape:vp_y="0 : 1000 : 0"
       inkscape:vp_x="0 : 0.5 : 1"
       sodipodi:type="inkscape:persp3d" />
    <inkscape:perspective
       id="perspective5032"
       inkscape:persp3d-origin="0.5 : 0.33333333 : 1"
       inkscape:vp_z="1 : 0.5 : 1"
       inkscape:vp_y="0 : 1000 : 0"
       inkscape:vp_x="0 : 0.5 : 1"
       sodipodi:type="inkscape:persp3d" />
    <inkscape:perspective
       id="perspective5332"
       inkscape:persp3d-origin="0.5 : 0.33333333 : 1"
       inkscape:vp_z="1 : 0.5 : 1"
       inkscape:vp_y="0 : 1000 : 0"
       inkscape:vp_x="0 : 0.5 : 1"
       sodipodi:type="inkscape:persp3d" />
    <inkscape:perspective
       id="perspective6140"
       inkscape:persp3d-origin="0.5 : 0.33333333 : 1"
       inkscape:vp_z="1 : 0.5 : 1"
       inkscape:vp_y="0 : 1000 : 0"
       inkscape:vp_x="0 : 0.5 : 1"
       sodipodi:type="inkscape:persp3d" />
    <inkscape:perspective
       id="perspective6272"
       inkscape:persp3d-origin="0.5 : 0.33333333 : 1"
       inkscape:vp_z="1 : 0.5 : 1"
       inkscape:vp_y="0 : 1000 : 0"
       inkscape:vp_x="0 : 0.5 : 1"
       sodipodi:type="inkscape:persp3d" />
    <inkscape:perspective
       id="perspective6296"
       inkscape:persp3d-origin="0.5 : 0.33333333 : 1"
       inkscape:vp_z="1 : 0.5 : 1"
       inkscape:vp_y="0 : 1000 : 0"
       inkscape:vp_x="0 : 0.5 : 1"
       sodipodi:type="inkscape:persp3d" />
    <inkscape:perspective
       id="perspective6310"
       inkscape:persp3d-origin="0.5 : 0.33333333 : 1"
       inkscape:vp_z="1 : 0.5 : 1"
       inkscape:vp_y="0 : 1000 : 0"
       inkscape:vp_x="0 : 0.5 : 1"
       sodipodi:type="inkscape:persp3d" />
    <inkscape:perspective
       id="perspective6324"
       inkscape:persp3d-origin="0.5 : 0.33333333 : 1"
       inkscape:vp_z="1 : 0.5 : 1"
       inkscape:vp_y="0 : 1000 : 0"
       inkscape:vp_x="0 : 0.5 : 1"
       sodipodi:type="inkscape:persp3d" />
    <inkscape:perspective
       id="perspective6340"
       inkscape:persp3d-origin="0.5 : 0.33333333 : 1"
       inkscape:vp_z="1 : 0.5 : 1"
       inkscape:vp_y="0 : 1000 : 0"
       inkscape:vp_x="0 : 0.5 : 1"
       sodipodi:type="inkscape:persp3d" />
    <inkscape:perspective
       id="perspective6367"
       inkscape:persp3d-origin="0.5 : 0.33333333 : 1"
       inkscape:vp_z="1 : 0.5 : 1"
       inkscape:vp_y="0 : 1000 : 0"
       inkscape:vp_x="0 : 0.5 : 1"
       sodipodi:type="inkscape:persp3d" />
    <inkscape:perspective
       id="perspective6451"
       inkscape:persp3d-origin="0.5 : 0.33333333 : 1"
       inkscape:vp_z="1 : 0.5 : 1"
       inkscape:vp_y="0 : 1000 : 0"
       inkscape:vp_x="0 : 0.5 : 1"
       sodipodi:type="inkscape:persp3d" />
    <inkscape:perspective
       id="perspective6465"
       inkscape:persp3d-origin="0.5 : 0.33333333 : 1"
       inkscape:vp_z="1 : 0.5 : 1"
       inkscape:vp_y="0 : 1000 : 0"
       inkscape:vp_x="0 : 0.5 : 1"
       sodipodi:type="inkscape:persp3d" />
    <inkscape:perspective
       id="perspective6743"
       inkscape:persp3d-origin="0.5 : 0.33333333 : 1"
       inkscape:vp_z="1 : 0.5 : 1"
       inkscape:vp_y="0 : 1000 : 0"
       inkscape:vp_x="0 : 0.5 : 1"
       sodipodi:type="inkscape:persp3d" />
    <inkscape:perspective
       id="perspective6794"
       inkscape:persp3d-origin="0.5 : 0.33333333 : 1"
       inkscape:vp_z="1 : 0.5 : 1"
       inkscape:vp_y="0 : 1000 : 0"
       inkscape:vp_x="0 : 0.5 : 1"
       sodipodi:type="inkscape:persp3d" />
    <inkscape:perspective
       id="perspective6821"
       inkscape:persp3d-origin="0.5 : 0.33333333 : 1"
       inkscape:vp_z="1 : 0.5 : 1"
       inkscape:vp_y="0 : 1000 : 0"
       inkscape:vp_x="0 : 0.5 : 1"
       sodipodi:type="inkscape:persp3d" />
  </defs>
  <sodipodi:namedview
     id="base"
     pagecolor="#ffffff"
     bordercolor="#666666"
     borderopacity="1.0"
     inkscape:pageopacity="0.0"
     inkscape:pageshadow="2"
     inkscape:zoom="0.34490741"
     inkscape:cx="1366.9169"
     inkscape:cy="447.11547"
     inkscape:document-units="in"
     inkscape:current-layer="layer1"
     showgrid="false"
     units="in"
     inkscape:showpageshadow="false"
     borderlayer="false"
     inkscape:window-width="1280"
     inkscape:window-height="1002"
     inkscape:window-x="1276"
     inkscape:window-y="92"
     inkscape:window-maximized="1" />
  <metadata
     id="metadata7">
    <rdf:RDF>
      <cc:Work
         rdf:about="">
        <dc:format>image/svg+xml</dc:format>
        <dc:type
           rdf:resource="http://purl.org/dc/dcmitype/StillImage" />
        <dc:title></dc:title>
      </cc:Work>
    </rdf:RDF>
  </metadata>
  <g
     inkscape:label="Layer 1"
     inkscape:groupmode="layer"
     id="layer1"
     transform="translate(0,27.64025)">
    <path
       style="fill:#000000"
       d="m 97.818751,3.7237169 c -1.934284,1.168637 -2.271982,26.6073321 -0.356771,26.8601461 0.783656,0.103421 10.67465,0.0681 21.98996,-0.0541 11.3153,-0.122177 21.11932,0.654948 21.76032,1.715936 1.94402,3.217602 -5.9663,14.360323 -10.79978,15.225281 -7.02309,1.256812 -7.71687,9.080496 -7.08243,77.929334 0.32587,35.35368 0.096,65.20017 -0.49287,66.33537 -0.58891,1.13525 -18.52348,2.23874 -39.848685,2.44573 -21.325287,0.20704 -39.768858,0.97767 -40.986183,1.71314 -2.447299,1.4786 -3.277495,24.37575 -1.022473,28.10823 0.782527,1.2952 14.101896,2.31525 29.610926,2.25945 15.508864,-0.0558 30.784435,0.78039 33.942025,1.87815 4.78376,1.66315 5.79748,7.84287 6.06872,36.99519 0.94235,101.29169 1.1593,136.30311 1.44833,225.15115 0.17349,53.3746 0.33077,110.20798 0.34706,126.27676 0.0247,24.49958 1.16916,30.53399 7.01894,37.41795 5.89086,6.93239 7.0012,13.13911 7.08864,39.88328 l 0.097,31.66117 9.82478,0.8612 c 8.51071,0.7344 10.48282,2.34621 14.75505,12.17148 2.76297,6.35447 7.10896,12.11264 9.89774,13.08213 3.76713,1.30971 4.99144,8.68828 4.97961,30.3425 -0.009,15.7395 -0.0196,71.95307 -0.0296,124.90328 -0.0175,87.44935 1.8406,107.30523 10.29488,109.39113 4.35974,1.0759 4.50342,0.6395 4.81762,-15.3265 L 179.4021,754.61768 c 7.60219,-1.79025 17.91899,-14.46501 18.96615,-18.70914 1.68211,-6.81704 2.81057,-7.6791 9.76854,-7.38215 8.52763,0.36395 8.11219,2.91392 9.02726,-53.90978 0.19289,-11.98016 1.93806,-16.46863 8.21419,-21.15501 7.12342,-5.31909 7.96512,-9.41385 7.91753,-38.34616 -0.72808,-82.80864 -0.0126,-165.58222 -0.0961,-248.41365 -0.081,-71.25697 0.42276,-132.00191 1.12501,-134.99037 1.04089,-4.42956 6.94731,-5.50389 31.93644,-5.79164 16.8593,-0.1941 31.65064,-0.98185 32.87555,-1.73701 1.22484,-0.7553 2.07008,-7.58777 1.8824,-15.18465 -0.4004,-16.20981 2.68652,-15.15458 -44.1283,-15.08801 -18.80078,0.0267 -34.69903,-0.0467 -35.32478,-0.16667 -1.1718,-0.22467 -1.5802,-60.46848 -0.74538,-111.535666 0.46333,-28.345456 0.32015,-29.010478 -8.48335,-34.841528 -4.93607,-3.269449 -9.41413,-8.391141 -9.94566,-11.361442 -0.84803,-4.738971 1.41699,-5.436421 18.52231,-5.843625 10.72101,-0.255215 20.24477,-1.951188 21.17146,-3.758721 1.82917,-3.567816 1.07615,-24.2206548 -0.89051,-24.3242528 -10.13092,-0.533627 -142.279887,0.983209 -143.376104,1.645516 z"
       id="path6970" />
    <path
       id="path6979"
       style="fill:#00ffff"
       d="m 919.77378,231.20755 c 12.94092,-0.0521 36.74766,-0.27485 48.37241,3.6121 1.86308,3.02752 1.01349,3.46569 -4.79502,2.41371 -3.89212,-0.70493 -15.61555,-0.67641 -26.06069,0.0665 -8.13898,0.4519 -19.7889,0.44559 -17.5167,-6.09236 z m 53.41795,-55.9881 c 2.15375,-1.23373 4.9326,-1.41474 7.37147,-0.9494 5.31925,1.31252 6.23138,2.88911 7.00451,12.44359 0.93688,11.57813 -2.29084,15.70532 -10.67167,13.63739 -6.16287,-1.52068 -10.22785,-7.50545 -6.58816,-9.7044 1.45111,-0.87671 3.71192,0.19369 5.02701,2.37026 1.315,2.17656 3.59798,3.23363 5.04909,2.35692 3.26678,-1.97368 -1.85563,0.82958 -5.5136,-9.17546 -1.28331,-3.51011 13.72249,-2.80956 -3.58078,-9.37659 0.54725,-0.65904 1.18402,-1.19098 1.90197,-1.60222 z m -53.39053,12.83264 c 7.59701,-4.53523 24.2789,-3.68341 26.4507,-4.47112 10.73947,-0.25563 20.16161,0.61993 20.96726,1.95341 1.39766,2.31339 -40.05703,6.29382 -50.05379,4.80504 0.64535,-0.88857 1.55057,-1.63938 2.63583,-2.28733 z m -1.66892,-51.16319 c 1.83348,-1.28968 10.87636,-2.09855 28.30189,-0.90711 10.82591,0.0184 20.39189,1.20123 21.26646,2.64868 0.87449,1.44744 -0.43298,2.63545 -2.90966,2.63405 -2.47681,-0.002 -11.71443,-0.15114 -20.52334,-0.31844 -18.93668,0.0482 -28.49276,-2.39904 -26.13535,-4.05718 z m 56.03257,-59.410605 c 1.11741,-0.610776 2.63116,-0.605713 4.85035,-0.27206 8.27781,1.244622 11.17921,6.826695 7.39596,14.29153 -1.71695,3.387887 -1.59268,7.376827 0.30209,8.850075 4.43624,3.44944 0.76221,5.4428 -8.28294,4.4908 -8.20476,-0.86352 -9.32333,-7.085218 -2.06604,-11.469814 2.73078,-1.64992 4.97032,-4.647408 4.99043,-6.640264 0.0199,-2.009718 -2.62438,-2.009313 -5.95089,4.8e-4 -5.59403,3.379792 -5.88387,3.163152 -4.26306,-3.405822 0.80747,-3.272609 1.5873,-5.059606 3.0241,-5.844925 z m -55.82213,12.307966 c 6.82627,-2.406486 14.64739,-1.087389 21.72704,-1.889099 29.78917,0.959778 36.53139,5.001058 7.95661,4.769185 -15.37881,0.108374 -31.11955,-1.469776 -29.68365,-2.880086 z m 1.03002,-48.896619 c 0.73855,-0.654753 17.01051,-2.887914 25.1242,-1.766472 26.92877,-0.116145 25.837,-0.228977 25.12891,2.641246 -0.31343,1.269803 -8.96455,2.392019 -19.24209,2.502332 -10.42216,-0.951347 -32.42108,-2.127054 -31.01102,-3.377106 z M 974.43756,283.583 c 15.39833,-0.39291 29.26794,-1.46051 30.79394,-2.38253 11.5825,-43.71502 10.0165,-182.914578 8.6745,-287.6980503 -4.9472,1.1133349 -28.02984,-0.7816874 -29.32498,1.3137392 -0.11253,11.1405754 -3.68636,16.9159311 -6.42442,11.9171464 -0.61154,-1.116097 -0.75865,-5.2175803 -0.34726,-9.1249101 0.13768,-1.3077212 0.0929,-2.6493027 -0.0695,-3.9153456 -5.53487,1.2511877 -22.37138,2.3068303 -31.0028,2.2368394 -12.12028,1.5543046 -23.99312,-0.6558612 -36.61342,0.400436 l 0.52869,126.227395 0.60607,105.15504 c -1.90638,16.73753 -2.12134,33.38562 -0.29844,50.20695 19.58583,4.04696 42.78786,5.01412 63.47771,5.66329 z" />
    <path
       id="path6938"
       style="fill:#ff00ff"
       d="m 532.39097,766.66692 -0.20362,30.51357 c -0.11114,16.78831 0.4468,30.62487 1.2294,30.73534 1.45874,0.206 8.66981,0.72396 19.96213,0.9898 -1.5575,9.92549 10.3332,21.36593 16.33062,24.17939 14.82123,2.92614 22.8281,-12.20585 26.66032,-24.32444 2.39774,-0.48277 4.30745,-1.30402 4.75581,-2.17858 0.64445,-1.25705 1.21265,-14.48574 1.2447,-29.39042 0.032,-14.90466 -0.51565,-28.05399 -1.22477,-29.22767 -0.70913,-1.17369 -16.48385,-1.96173 -35.03248,-1.73293 l -33.72211,0.43594 z M 449.97401,315.34891 c 2.45534,2.28074 6.10738,4.43109 7.61495,4.7037 4.71934,1.06636 206.78535,1.30863 226.00783,0.26966 5.6329,-0.59662 16.72691,-6.96659 12.91158,-1.87986 -2.02308,4.02887 -9.83975,5.22332 -34.00006,5.22591 -8.99517,-0.01 -50.54711,-2.15202 -46.60702,3.81008 5.57462,0.78593 4.45415,4.74044 2.00568,6.21972 -22.25269,1.2047 -90.66711,13.26079 -99.35211,-5.7396 1.80949,-3.62706 0.82454,-4.42857 -4.97028,-4.12648 -12.21236,0.83247 -24.05306,0.73512 -36.37917,0.13808 -13.89329,0.20687 -25.62005,-0.254 -26.0773,-1.01092 -0.81314,-1.3458 -1.16949,-4.46127 -1.1541,-7.61029 z m 1.70772,-8.5237 c 1.15334,-0.69679 32.77608,-1.226 70.28582,-1.16878 41.22925,-0.0717 82.36643,-1.15884 123.59017,-0.14373 31.68141,-0.26076 46.02515,0.36482 50.75877,3.86201 -14.28787,-1.01217 -65.83727,-0.64597 -122.5947,-0.60872 -76.87676,0.0505 -113.20565,-0.9951 -123.28585,1.0474 0.29105,-1.51917 0.70991,-2.66441 1.24579,-2.98818 z M 578.38291,130.97743 c 3.48802,0.001 7.02989,-0.009 10.5805,0.0119 l -2.30475,158.08826 -8.27575,-158.10017 z m -18.53102,0.0789 c 4.42972,-0.0456 9.36825,-0.0751 14.3893,-0.084 l -6.583,154.05724 -7.8063,-153.97323 z m -5.04167,0.0554 c 0.82359,-0.0118 1.72438,-0.0107 2.58517,-0.0212 -1.80763,4.52109 -3.81819,11.47161 -4.92275,14.30268 -1.8919,4.8492 -6.48638,10.70216 -10.21244,12.99742 -5.69792,3.50994 -6.76126,9.15036 -6.65337,35.58855 0.0707,17.28866 -0.025,46.93375 -0.22818,65.87338 -0.10658,9.92382 0.64274,22.82859 -0.97737,29.8331 0.32541,-10.41467 -2.05079,-31.63435 -1.8819,-61.36607 0.24983,-43.97405 1.91478,-67.30583 4.96516,-69.8833 5.98959,-5.06093 14.39648,-19.63077 17.32568,-27.32453 z m -51.89969,-20.15038 c -1.07047,0.65771 -1.49843,4.76318 -0.94189,9.54125 0.98836,8.48479 1.98375,9.37298 11.65069,10.63339 5.80666,0.7571 16.9906,0.96732 24.86049,0.44706 2.60503,-0.1722 7.32504,-0.29999 13.16891,-0.40397 -2.32193,4.28091 -4.73052,9.98998 -5.39852,10.96502 -2.20513,3.72665 -7.03425,9.58472 -10.74454,13.01679 -5.86217,5.42255 -6.72006,15.14361 -6.44614,74.28233 0.19669,23.07523 0.17946,46.17576 1.01485,69.23083 26.75389,-3.18363 54.1585,4.20252 80.74498,-1.65758 1.76228,-1.02065 3.0839,-31.77878 2.93001,-68.35163 -0.23222,-55.17245 -1.26298,-67.08114 -6.05883,-69.92933 -3.17904,-1.888 -8.50047,-7.91938 -11.81432,-13.40438 -1.1786,-2.48021 -4.00855,-9.79673 -2.62909,-14.30171 2.30349,7.72423 11.40088,22.72124 17.19694,26.16336 4.94128,2.9346 5.9767,14.76232 6.40175,73.3472 0.27863,38.40601 -0.1172,70.18665 -0.85661,70.6334 -0.73948,0.44678 -5.4746,0.65618 -10.53021,0.47126 -32.28914,2.41143 -65.93426,-0.88101 -98.44147,0.56775 -32.64375,-0.0846 -60.02493,0.22587 -60.83302,0.71412 -1.52479,0.92121 -1.90125,20.65365 -0.43942,23.07341 20.54549,4.11762 41.71516,-1.05009 62.3882,1.75994 7.88767,1.03387 8.90895,3.53139 8.48921,20.85104 -0.56117,23.15762 0.56869,101.47684 1.55178,106.97023 0.49031,2.74022 2.12516,4.24429 3.61972,3.3413 1.49456,-0.90297 2.73668,-27.57106 2.76288,-59.2784 0.0262,-31.70733 0.55799,-57.97652 1.17796,-58.35116 l 2.81369,115.05908 c 1.79335,8.37543 2.67648,-7.80302 2.79235,-51.07931 0.19952,-19.40981 -0.64429,-41.78793 0.39796,-56.7923 2.0912,-14.14252 2.31874,-9.55894 2.47715,51.55092 0.0781,30.11521 0.71133,55.6783 1.4025,56.82228 0.69117,1.14398 10.47171,2.04545 21.74785,1.99533 8.77931,-0.039 22.95158,0.49098 28.21149,1.44343 -0.42314,-1.8294 -1.14925,-3.33289 -2.03879,-4.02462 -1.70321,-1.32434 -0.80499,-4.04507 1.99904,-6.0413 0.79506,-0.56589 1.49986,-1.05785 2.12418,-1.4344 4.1911,-2.52731 4.76109,-0.2889 4.68262,11.55051 8.93048,-0.66573 29.61412,-1.41586 29.60667,-1.99751 -0.70718,-55.07165 -1.30669,-100.12605 0.17257,-115.86641 0.23065,-0.87549 0.44375,-1.4281 0.62938,-1.55839 1.29886,-0.91226 1.56403,19.25897 1.72496,99.85693 0.0961,48.1087 0.25742,112.51682 0.36334,143.15394 0.0231,52.75714 -0.34683,106.33392 -2.11614,158.85041 -3.75229,9.81118 -11.97006,12.31557 -41.06815,12.57757 -13.49429,0.12152 -52.97854,-4.62565 -62.17625,-6.35902 1.149,4.80325 4.5968,9.60389 9.70776,10.41763 2.09676,0.33384 22.60776,2.20171 46.58026,1.94587 56.77048,-0.60605 56.78025,-0.61882 57.03779,-52.64684 0.21364,-28.98068 1.39467,-57.90919 -1.8e-4,-86.85172 -0.21878,-52.17572 -0.22578,-217.90938 -0.009,-250.36949 0.13775,-20.63079 -1.44353,-34.93804 -4.1872,-37.98091 -14.36039,-11.83135 61.98496,-1.1562 70.04319,-7.97038 3.7895,-7.038 1.38163,-16.35667 2.3167,-23.96605 l -40.97368,-0.0163 -40.9382,-0.007 0.61362,-9.58457 c 0.59903,-9.24381 0.85127,-98.47044 0.34499,-121.83119 -0.21332,-9.838 -1.25505,-12.00816 -7.64454,-15.80285 -4.22556,-2.50956 -8.43666,-7.76457 -9.80641,-12.23101 -0.78805,-2.56963 -3.10858,-7.41323 -5.27973,-11.03873 23.43484,0.2205 43.14447,-2.36563 43.96738,-2.72885 0.83569,-0.36884 1.48394,-2.71883 1.42925,-8.23459 l -0.10609,-10.02583 -68.59924,0.21025 c -37.7293,0.11868 -69.60966,0.40053 -70.84177,0.59843 -0.0764,0.0122 -0.15457,0.0323 -0.22594,0.0761 z" />
    <path
       style="fill:#b3b3b3"
       d="m 927.11716,571.9044 c 0.9026,-0.61414 4.76171,-2.35561 7.22666,-0.43898 l 1.64405,255.72568 c -6.92186,4.18205 -8.54768,-15.14125 -8.52341,-101.45916 0.0144,-51.30258 -0.16775,-107.27988 -0.41667,-124.39194 -0.24899,-17.11205 -0.83324,-28.82146 0.0693,-29.4356 z"
       id="path6936" />
  </g>
</svg>
