<?xml version="1.0"?><svg width="387.0625" height="386" xmlns="http://www.w3.org/2000/svg">
 <title>gear</title>

 <metadata id="metadata7">image/svg+xml</metadata>
 <g>
  <title>Layer 1</title>
  <g id="layer1">
   <g id="g2290">
    <path id="path4850" d="m62.8125,48.072689l16.4375,45.187504c-0.035507,0.038383 -0.058289,0.086578 -0.09375,0.125l0.125,0.375c-6.91243,7.533905 -13.130524,15.847404 -18.5,24.90625l-49.5,-1.34375c-0.98158,2.224091 -1.98515,4.445587 -2.875,6.6875c-1.21228,3.054314 -2.33096,6.105042 -3.375,9.1875c-1.04366,3.082581 -2.02916,6.207153 -2.90625,9.3125c-0.78567,2.782104 -1.47246,5.549896 -2.125,8.34375l40.5,27.09375c-0.04924,0.444214 -0.017399,0.898956 -0.0625,1.34375l0.28125,0.1875c-0.465698,4.723572 -0.62151,9.448029 -0.625,14.15625l88.9375,0c0.017822,-2.83725 0.250763,-5.67804 0.65625,-8.46875c0.405457,-2.79071 1.000793,-5.544739 1.78125,-8.25c0.780457,-2.705261 1.732208,-5.356537 2.875,-7.9375c1.142792,-2.580963 2.476288,-5.082214 3.96875,-7.5c1.492462,-2.417786 3.139282,-4.753021 4.96875,-6.96875c1.829468,-2.215729 3.846161,-4.306458 6,-6.28125c2.153839,-1.974762 4.440704,-3.836273 6.90625,-5.53125c2.465546,-1.694946 5.110413,-3.248749 7.875,-4.625c1.9729,-0.982147 3.947662,-1.827942 5.96875,-2.59375c2.021088,-0.765808 4.07019,-1.445892 6.125,-2c2.05481,-0.554108 4.113464,-0.996765 6.1875,-1.34375c0.974457,-0.163025 1.961151,-0.225708 2.9375,-0.34375c0.333832,-0.042969 0.665314,-0.087128 1,-0.125c0.769257,-0.080994 1.543213,-0.227783 2.3125,-0.28125c0.752014,-0.052246 1.498657,-0.005096 2.25,-0.03125c0.853455,-0.036865 1.706207,-0.059052 2.5625,-0.0625c0.468658,0.002075 0.938354,-0.043335 1.40625,-0.03125c0.344452,0.008911 0.687317,0.048187 1.03125,0.0625c1.717682,0.057159 3.437225,0.211975 5.15625,0.40625c7.378448,0.833832 14.74649,2.857269 21.75,6.34375c22.116577,11.010071 34.82608,32.864624 34.96875,55.5625l89.031219,0c-0.000977,-4.726227 -0.218018,-9.477325 -0.6875,-14.21875l41,-27.4375c-0.011963,-0.052887 -0.050415,-0.103363 -0.0625,-0.15625c-0.712097,-3.12265 -1.497986,-6.238373 -2.375,-9.34375c-0.876953,-3.105347 -1.831238,-6.198669 -2.875,-9.28125c-1.043701,-3.082581 -2.16272,-6.133186 -3.375,-9.1875c-0.880066,-2.217369 -1.840454,-4.429176 -2.8125,-6.625l-49.124969,1.34375c-0.328491,-0.555206 -0.726715,-1.073647 -1.0625,-1.625l-0.3125,0c-2.407867,-3.953064 -4.967163,-7.775246 -7.6875,-11.4375c-2.720337,-3.662262 -5.586975,-7.169861 -8.59375,-10.53125l16.6875,-45.812504c-1.450012,-1.264618 -2.891235,-2.53091 -4.375,-3.75c-2.467194,-2.02713 -4.97525,-4.006409 -7.53125,-5.90625c-2.55603,-1.899837 -5.173279,-3.729248 -7.8125,-5.5c-2.639252,-1.770748 -5.314392,-3.485069 -8.03125,-5.125c-0.777283,-0.46917 -1.555206,-0.92767 -2.34375,-1.375l-39,29.34375c-0.567657,-0.248898 -1.149536,-0.4147 -1.71875,-0.65625l-0.09375,0.0625c-4.305176,-1.830898 -8.703186,-3.437378 -13.15625,-4.875c-4.453064,-1.437618 -8.95871,-2.680019 -13.53125,-3.71875l-0.0625,-0.15625c-0.022186,-0.00494 -0.040344,-0.026299 -0.0625,-0.03125l-14.03125,-46.562499c-1.973389,-0.20361 -3.924927,-0.44845 -5.90625,-0.59375c-3.18457,-0.23352 -6.39328,-0.3544 -9.59375,-0.4375c-2.140564,-0.05557 -4.288879,-0.0383 -6.4375,-0.03125c-1.075592,0.01142 -2.144958,-0.02786 -3.21875,0c-3.200378,0.0831 -6.37793,0.23523 -9.5625,0.46875c-1.012634,0.07422 -2.020935,0.22302 -3.03125,0.3125l-14,46.374999c-10.158691,2.096832 -20.071198,5.180363 -29.59375,9.21875l-39.375,-29.59375c-1.315666,0.753792 -2.638786,1.46594 -3.9375,2.25c-2.716919,1.6399 -5.391724,3.35434 -8.03125,5.125c-2.639267,1.770782 -5.256523,3.600132 -7.8125,5.5c-2.556053,1.899811 -5.063957,3.87912 -7.53125,5.90625c-0.980408,0.805641 -1.911572,1.67136 -2.875,2.5zm181.78125,39.281254c1.359802,0.094208 2.74118,0.451538 4.03125,1.09375c5.160278,2.568909 7.223053,8.770744 4.59375,13.8125c-2.629333,5.041718 -8.964722,7.037659 -14.125,4.46875c-5.160278,-2.568886 -7.223083,-8.739502 -4.59375,-13.78125c1.971954,-3.781311 6.014374,-5.876373 10.09375,-5.59375zm-148.875,47.28125c1.359772,0.094208 2.74118,0.451538 4.03125,1.09375c5.16037,2.568939 7.223083,8.739563 4.59375,13.78125c-2.629402,5.041718 -8.964691,7.037659 -14.125,4.46875c-5.160309,-2.568878 -7.223152,-8.739532 -4.59375,-13.78125c1.972023,-3.781281 6.014397,-5.845123 10.09375,-5.5625z" stroke-dashoffset="0" stroke-miterlimit="4" marker-end="none" marker-mid="none" marker-start="none" stroke-linecap="round" stroke-width="33.805305" fill-rule="nonzero" fill="#7f7f7f"/>
    <path id="path3767" d="m324.25,337.927246l-16.4375,-45.1875c0.035492,-0.038391 0.058289,-0.086609 0.09375,-0.125l-0.125,-0.375c6.912415,-7.533875 13.130524,-15.847412 18.5,-24.90625l49.499969,1.34375c0.981628,-2.224121 1.985168,-4.445618 2.875,-6.6875c1.21228,-3.054321 2.330994,-6.105042 3.375,-9.1875c1.043701,-3.082581 2.029175,-6.207184 2.90625,-9.3125c0.785706,-2.782104 1.472473,-5.549896 2.125,-8.34375l-40.5,-27.09375c0.049255,-0.444214 0.017456,-0.898956 0.0625,-1.34375l-0.28125,-0.1875c0.465698,-4.723572 0.621521,-9.448059 0.625,-14.15625l-88.937469,0c-0.017822,2.83725 -0.250793,5.67804 -0.65625,8.46875c-0.405487,2.79068 -1.000793,5.544708 -1.78125,8.25c-0.780457,2.705261 -1.732208,5.356537 -2.875,7.9375c-1.142792,2.580963 -2.476288,5.082214 -3.96875,7.5c-1.492462,2.417755 -3.139282,4.753021 -4.96875,6.96875c-1.829468,2.215698 -3.846161,4.306458 -6,6.28125c-2.153839,1.974762 -4.440704,3.836273 -6.90625,5.53125c-2.465546,1.694946 -5.110413,3.248718 -7.875,4.625c-1.9729,0.982117 -3.947662,1.827911 -5.96875,2.59375c-2.021088,0.765808 -4.07019,1.445892 -6.125,2c-2.05481,0.554077 -4.113464,0.996765 -6.1875,1.34375c-0.974457,0.163025 -1.961151,0.225708 -2.9375,0.34375c-0.333832,0.042969 -0.665314,0.087158 -1,0.125c-0.769287,0.080994 -1.543213,0.227783 -2.3125,0.28125c-0.752014,0.052246 -1.498657,0.005066 -2.25,0.03125c-0.853455,0.036865 -1.706207,0.059021 -2.5625,0.0625c-0.468658,-0.002075 -0.938354,0.043335 -1.40625,0.03125c-0.344452,-0.008911 -0.687317,-0.048218 -1.03125,-0.0625c-1.717682,-0.05719 -3.437225,-0.211975 -5.15625,-0.40625c-7.378448,-0.833862 -14.74649,-2.857269 -21.75,-6.34375c-22.116577,-11.010071 -34.82608,-32.864624 -34.96875,-55.5625l-89.03125,0c0.001011,4.726196 0.21806,9.477295 0.6875,14.21875l-41,27.4375c0.01202,0.052887 0.05045,0.103363 0.0625,0.15625c0.71211,3.12265 1.49802,6.238373 2.375,9.34375c0.877,3.105316 1.83127,6.198669 2.875,9.28125c1.04373,3.082581 2.16275,6.133179 3.375,9.1875c0.88008,2.217346 1.84045,4.429199 2.8125,6.625l49.125,-1.34375c0.328491,0.555176 0.726719,1.073669 1.0625,1.625l0.3125,0c2.407852,3.953064 4.967163,7.775208 7.6875,11.4375c2.720322,3.662231 5.58696,7.169861 8.59375,10.53125l-16.6875,45.8125c1.450008,1.264587 2.891243,2.530884 4.375,3.75c2.467194,2.0271 4.97525,4.006409 7.53125,5.906189c2.556053,1.899902 5.173264,3.729309 7.8125,5.5c2.639252,1.770813 5.314392,3.485107 8.03125,5.125c0.777283,0.469238 1.555183,0.927734 2.34375,1.375l39,-29.343689c0.567657,0.248901 1.149536,0.414734 1.71875,0.656189l0.09375,-0.0625c4.305176,1.830933 8.703186,3.437439 13.15625,4.875c4.453064,1.437622 8.95871,2.680115 13.53125,3.718811l0.0625,0.156189c0.022156,0.005005 0.040314,0.026306 0.0625,0.031311l14.03125,46.5625c1.973389,0.203613 3.924896,0.448425 5.90625,0.593689c3.18457,0.233643 6.39328,0.354431 9.59375,0.4375c2.140564,0.055603 4.288879,0.03833 6.4375,0.031311c1.075592,-0.011414 2.144958,0.027893 3.21875,0c3.200378,-0.083069 6.37793,-0.235291 9.5625,-0.468811c1.012634,-0.074158 2.020905,-0.222961 3.03125,-0.3125l14,-46.375c10.158691,-2.096802 20.071198,-5.180298 29.59375,-9.218689l39.375,29.593689c1.315674,-0.753662 2.638763,-1.465881 3.9375,-2.25c2.716919,-1.639893 5.391724,-3.354309 8.03125,-5.125c2.639282,-1.770691 5.256531,-3.600098 7.8125,-5.5c2.556061,-1.89978 5.063965,-3.879089 7.53125,-5.906189c0.980408,-0.805664 1.91156,-1.671387 2.875,-2.5zm-181.78125,-39.281311c-1.359802,-0.094177 -2.74118,-0.451477 -4.03125,-1.093689c-5.160278,-2.568909 -7.223053,-8.770813 -4.59375,-13.8125c2.629303,-5.041748 8.964722,-7.037659 14.125,-4.46875c5.160278,2.568848 7.223053,8.739563 4.59375,13.78125c-1.971985,3.781311 -6.014404,5.876404 -10.09375,5.593689zm148.875,-47.281189c-1.359772,-0.094208 -2.74118,-0.451538 -4.03125,-1.09375c-5.16037,-2.568939 -7.223083,-8.739563 -4.59375,-13.78125c2.629395,-5.041718 8.964691,-7.037659 14.125,-4.46875c5.160309,2.568878 7.223145,8.739502 4.59375,13.78125c-1.972015,3.781281 -6.014435,5.845123 -10.09375,5.5625z" stroke-dashoffset="0" stroke-miterlimit="4" marker-end="none" marker-mid="none" marker-start="none" stroke-linecap="round" stroke-width="33.805305" fill-rule="nonzero" fill="#7f7f7f"/>
   </g>
   <path d="m193.732361,98.699654c-51.389832,0 -93.330933,41.899437 -93.330933,93.289268c0,51.389832 41.941101,93.330963 93.330933,93.330963c51.389862,0 93.289276,-41.941132 93.289276,-93.330963c0,-51.389832 -41.899414,-93.289268 -93.289276,-93.289268zm0,21.300613c39.861969,0 71.988647,32.126686 71.988647,71.988655c0,39.861938 -32.126678,72.030304 -71.988647,72.030304c-39.861938,0 -72.030304,-32.168365 -72.030304,-72.030304c0,-39.861969 32.168365,-71.988655 72.030304,-71.988655z" id="path2327" stroke-dashoffset="0" stroke-miterlimit="4" stroke-linejoin="round" stroke-width="15.972773" fill-rule="nonzero" fill="#7f7f7f"/>
   <path d="m193.731995,101.825996c-49.682999,0 -90.162994,40.478996 -90.162994,90.163002c0,49.684006 40.479996,90.16301 90.162994,90.16301c49.684006,0 90.122009,-40.479004 90.122009,-90.16301c0,-49.684006 -40.438004,-90.163002 -90.122009,-90.163002zm0,15.006004c41.568008,0 75.157013,33.589005 75.157013,75.156998c0,41.568008 -33.589005,75.156998 -75.157013,75.156998c-41.567993,0 -75.155998,-33.588989 -75.155998,-75.156998c0,-41.567993 33.588005,-75.156998 75.155998,-75.156998z" id="path3500" stroke-dashoffset="0" stroke-miterlimit="4" stroke-linejoin="round" stroke-width="11.245264" fill-rule="nonzero" fill="#7f7f7f"/>
  </g>
 </g>
</svg>