<?xml version="1.0" encoding="UTF-8" standalone="no"?>
<!-- Created with Inkscape (http://www.inkscape.org/) -->
<svg
   xmlns:dc="http://purl.org/dc/elements/1.1/"
   xmlns:cc="http://web.resource.org/cc/"
   xmlns:rdf="http://www.w3.org/1999/02/22-rdf-syntax-ns#"
   xmlns:svg="http://www.w3.org/2000/svg"
   xmlns="http://www.w3.org/2000/svg"
   xmlns:sodipodi="http://sodipodi.sourceforge.net/DTD/sodipodi-0.dtd"
   xmlns:inkscape="http://www.inkscape.org/namespaces/inkscape"
   id="svg2"
   sodipodi:version="0.32"
   inkscape:version="0.44"
   width="261"
   height="80"
   version="1.0"
   sodipodi:docbase="D:\wiki_svg"
   sodipodi:docname="Greek_alphabet_psi.png.svg">
  <metadata
     id="metadata7">
    <rdf:RDF>
      <cc:Work
         rdf:about="">
        <dc:format>image/svg+xml</dc:format>
        <dc:type
           rdf:resource="http://purl.org/dc/dcmitype/StillImage" />
      </cc:Work>
    </rdf:RDF>
  </metadata>
  <defs
     id="defs5" />
  <sodipodi:namedview
     inkscape:window-height="665"
     inkscape:window-width="853"
     inkscape:pageshadow="2"
     inkscape:pageopacity="0.0"
     guidetolerance="1"
     gridtolerance="10.0"
     objecttolerance="10.0"
     borderopacity="1.0"
     bordercolor="#666666"
     pagecolor="#ffffff"
     id="base"
     inkscape:zoom="1"
     inkscape:cx="122.08847"
     inkscape:cy="65.954555"
     inkscape:window-x="11"
     inkscape:window-y="63"
     inkscape:current-layer="svg2"
     showguides="true"
     inkscape:guide-bbox="true"
     inkscape:guide-points="true" />
  <g
     id="g2884"
     transform="translate(-4.50914,-1.022656)">
    <path
       id="path1873"
       style="fill:black;fill-opacity:1;fill-rule:evenodd;stroke:none;stroke-width:1px;stroke-linecap:butt;stroke-linejoin:miter;stroke-opacity:1"
       d="M 189.3474,59.094796 L 189.3474,57.615593 C 189.3474,57.615593 184.72489,57.708043 183.43059,56.69109 C 182.13628,55.674137 181.30422,53.917583 181.30422,51.236525 C 181.30422,48.555469 181.30422,42.823555 181.30422,42.823555 C 181.30422,42.823555 193.6001,41.529251 197.48302,37.646341 C 201.36593,33.763431 202.47533,27.476814 202.47533,23.593904 C 202.47533,21.652449 202.49566,16.43424 202.49566,13.706344 C 202.49566,12.040193 202.79008,9.0736089 205.05136,9.0736089 C 206.17574,9.0736089 207.92989,9.079217 207.92989,9.079217 L 207.92989,7.1377622 C 207.92989,7.1377622 205.52619,7.0453117 204.04698,7.0453117 C 202.56777,7.0453117 199.00845,7.2764375 197.20566,9.079217 C 195.40289,10.881997 194.24726,15.828084 194.24726,24.333507 C 194.24726,32.838928 193.50766,35.150185 191.3813,37.27654 C 188.19144,40.466409 181.30422,40.6972 181.30422,40.6972 C 181.30422,40.6972 181.30422,19.248743 181.30422,16.290335 C 181.30422,13.331928 181.21177,11.760273 182.59853,10.37352 C 183.98529,8.986766 188.6078,9.171667 188.6078,9.171667 L 188.6078,7.0453127 L 165.89805,7.0453127 L 165.89805,9.171667 C 165.89805,9.171667 170.52056,8.986766 171.90732,10.37352 C 173.29408,11.760273 173.20163,13.331928 173.20163,16.290335 C 173.20163,19.248743 173.20163,40.6972 173.20163,40.6972 C 173.20163,40.6972 166.31442,40.466409 163.12456,37.27654 C 160.99819,35.150185 160.2586,32.838928 160.2586,24.333507 C 160.2586,15.828084 159.10297,10.881997 157.30019,9.079217 C 155.4974,7.2764375 151.93808,7.0453117 150.45887,7.0453117 C 148.97966,7.0453117 146.57596,7.1377622 146.57596,7.1377622 L 146.57596,9.079217 C 146.57596,9.079217 148.33012,9.0736089 149.4545,9.0736089 C 151.71577,9.0736089 152.01018,12.040193 152.01018,13.706344 C 152.01018,16.43424 152.03052,21.652449 152.03052,23.593904 C 152.03052,27.476814 153.13993,33.763431 157.02284,37.646341 C 160.90576,41.529251 173.20163,42.823555 173.20163,42.823555 C 173.20163,42.823555 173.20163,48.555469 173.20163,51.236525 C 173.20163,53.917583 172.36957,55.674137 171.07527,56.69109 C 169.78097,57.708043 165.15845,57.615593 165.15845,57.615593 L 165.15845,59.094796"
       sodipodi:nodetypes="ccsscssssccsssscssccccsscssssccsssscsscc" />
    <path
       sodipodi:nodetypes="cccssssssccssssssssccccssssssscc"
       id="path1953"
       d="M 228.625,75.5 L 221.125,75.5 L 226.25,60.25 C 226.25,60.25 220.4375,58.5625 217.875,56 C 215.3125,53.4375 214,51.25 214,47.75 C 214,44.25 215.5,39.125 216.625,36.125 C 217.75,33.125 218.375,30.625 218.375,28.875 C 218.375,27.125 217.40625,27 216.625,27 C 215.84375,27 213.65625,29.03125 212.875,29.96875 C 212.09375,30.90625 210.33371,33.679687 210.08371,33.992187 C 209.74742,33.992187 209.08626,33.992187 208.70312,33.992187 C 208.82031,32.632812 210.28125,30.125 210.75,29.5 C 211.21875,28.875 212.1875,27.5 213.3125,26.28125 C 214.4375,25.0625 216.40625,23.75 218.9375,23.75 C 221.46875,23.75 222.21875,24.625 222.75,25.15625 C 223.28125,25.6875 224.3125,28 224.3125,29.84375 C 224.3125,31.6875 223.125,36.875 221.75,41.125 C 220.375,45.375 219.9986,45.616933 219.9986,49.550214 C 219.9986,53.483496 221.58959,54.720933 222.91541,55.958369 C 224.24124,57.195806 226.89289,57.54936 226.89289,57.54936 L 240.37211,13.92971 L 242.6211,13.931305 L 232.81491,57.01903 C 232.81491,57.01903 237.52998,57.872425 244.30539,51.097011 C 249.03066,46.371747 250.13902,41.99301 250.13902,36.512933 C 250.13902,31.032855 248.53064,29.179904 248.53064,27.211661 C 248.53064,25.243418 250.00644,23.873399 251.55324,23.873399 C 253.10003,23.873399 255.44233,25.066642 255.44233,29.486059 C 255.44233,33.905477 253.45359,39.827496 252.21615,42.8327 C 250.97871,45.837904 248.76926,49.638348 244.92411,53.483496 C 239.24245,59.165155 232.1078,60.20101 232.1078,60.20101 L 228.625,75.5 z "
       style="fill:black;fill-opacity:1;fill-rule:evenodd;stroke:none;stroke-width:0.1;stroke-linecap:butt;stroke-linejoin:miter;stroke-miterlimit:4;stroke-dasharray:none;stroke-opacity:1" />
  </g>
  <g
     id="g2880"
     transform="translate(7.375,1.1875)">
    <path
       sodipodi:nodetypes="ccssccssccccssccssccc"
       d="M 35.75,59 L 35.75,48.25 C 35.75,48.25 43.718544,47.671177 50,42.875 C 55.800987,38.445683 59,29.75 59,22.25 C 59,14.75 59,5 59,5 L 51.25,5 C 51.25,5 51.25,16.25 51.25,22.5 C 51.25,28.75 48.827429,32.892813 47.25,35.625 C 44.032616,41.197673 35.75,41 35.75,41 L 35.75,5 L 28.25,5 L 28.25,41 C 28.25,41 19.967384,41.197673 16.75,35.625 C 15.172571,32.892813 12.75,28.75 12.75,22.5 C 12.75,16.25 12.75,5 12.75,5 L 5,5 C 5,5 5,14.75 5,22.25 C 5,29.75 8.1990128,38.445683 14,42.875 C 20.281456,47.671177 28.25,48.25 28.25,48.25 L 28.25,59 L 35.75,59 z "
       style="fill:black;fill-opacity:1;fill-rule:evenodd;stroke:none;stroke-width:0.2;stroke-linecap:butt;stroke-linejoin:miter;stroke-miterlimit:4;stroke-opacity:1"
       id="path2853" />
    <path
       sodipodi:nodetypes="ccssccssccccssccssccc"
       d="M 92.75,73.125 L 92.75,59.25 C 92.75,59.25 99,59.75 103.375,55.625 C 107.75,51.5 109.25,46.125 109.25,41.375 C 109.25,38.375 109.25,28 109.25,28 L 103.375,28 C 103.375,28 103.375,37.375 103.375,41.875 C 103.375,48.25 101,49.75 99.625,51.25 C 96.875,54.25 92.75,53.875 92.75,53.875 L 92.75,19 L 87.25,19 L 87.25,53.875 C 87.25,53.875 83.125,54.25 80.375,51.25 C 79,49.75 76.625,48.25 76.625,41.875 C 76.625,37.375 76.625,28 76.625,28 L 70.75,28 C 70.75,28 70.75,38.375 70.75,41.375 C 70.75,46.125 72.25,51.5 76.625,55.625 C 81,59.75 87.25,59.25 87.25,59.25 L 87.25,73.125 L 92.75,73.125 z "
       style="fill:black;fill-opacity:1;fill-rule:evenodd;stroke:none;stroke-width:0.2;stroke-linecap:butt;stroke-linejoin:miter;stroke-miterlimit:4;stroke-opacity:1"
       id="path2872" />
  </g>
</svg>
