<?xml version="1.0"?><svg width="1600" height="1200" xmlns="http://www.w3.org/2000/svg">
 <title>theatre masks</title>
 <defs>
  <radialGradient cy="0.511719" cx="0.511719" spreadMethod="pad" id="svg_34">
   <stop offset="0" stop-color="#b77031"/>
   <stop offset="1" stop-color="#488fce"/>
  </radialGradient>
 </defs>
 <g>
  <title>Layer 1</title>
  <g opacity="0.5" id="g3658" transform="matrix(0.32500435553981444,-0.9060837228746367,0.9209580637514425,0.3197552288303375,29.15047143747836,349.1976603206351) "/>
  <g opacity="0.5" id="g3669" transform="matrix(0.17543684991770403,-0.9452191286193967,0.9607359193611587,0.17260337941482426,-617.1156579941136,-68.72347589045272) "/>
  <g externalResourcesRequired="false" id="svg_37">
   <g externalResourcesRequired="false" id="svg_38">
    <g externalResourcesRequired="false" id="svg_40">
     <g externalResourcesRequired="false" id="svg_41">
      <g externalResourcesRequired="false" id="svg_39">
       <path fill="#ffffff" stroke="#000000" stroke-width="1.347034" stroke-linecap="round" stroke-linejoin="bevel" stroke-miterlimit="4" id="path4361" d="m750.488708,341.419006c-235.795471,-77.56308 -337.843048,-94.333633 -412.750397,103.179108c-73.14859,192.874359 -98.463425,363.362946 -59.500549,486.980316c39.059906,123.92511 135.710938,204.771301 171.379028,216.504333c35.66806,11.732666 173.735687,8.095093 287.703339,-65.492676c110.841187,-71.568848 216.232361,-222.546753 291.342224,-420.592102c74.907471,-197.512512 -48.632324,-245.073151 -278.173645,-320.578979z"/>
       <path fill="#000000" stroke="#000000" stroke-width="0" stroke-linecap="round" stroke-linejoin="bevel" stroke-miterlimit="4" id="path4363" d="m753.725647,342.736755c349.090759,104.534882 302.776306,214.314697 256.622131,339.980164c-46.154175,125.665771 -136.274597,337.922852 -297.305237,416.317261c-161.031006,78.394409 -227.09671,34.284668 -263.465088,49.322388l304.148193,-805.619812z"/>
       <path fill="#fcfcfc" stroke="#fcfbf9" stroke-width="1.347034" stroke-linecap="round" stroke-linejoin="bevel" stroke-miterlimit="4" id="path4373" d="m686.060242,678.86792c9.640991,-12.404724 34.066833,-14.729553 80.756104,0.691833c48.515869,16.025085 139.22406,82.361084 129.583374,94.765808c-6.445251,8.292908 -125.415649,-21.67865 -168.146973,-45.146362c-42.763794,-23.485779 -51.05542,-38.907349 -42.192505,-50.311279z"/>
       <path fill="#000000" stroke="#000000" stroke-width="1.347034" stroke-linecap="round" stroke-linejoin="bevel" stroke-miterlimit="4" id="path4375" d="m582.755249,641.028442c0.617737,-15.590088 -16.703613,-32.652649 -62.704407,-49.952393c-47.800598,-17.976868 -160.776978,-23.545593 -161.394806,-7.95575c-0.413147,10.422424 110.752045,61.69342 158.923248,70.31604c48.20813,8.629333 64.607849,1.924072 65.175964,-12.407898z"/>
       <path fill="#ffffff" stroke="#fcfcfc" stroke-width="1.347034" stroke-linecap="round" stroke-linejoin="bevel" stroke-miterlimit="4" id="path4379" d="m693.727173,630.266968c0,0 92.670593,-18.530823 125.275391,-7.252747c31.180176,10.785339 134.929016,63.534607 134.929016,63.534607c0,0 -98.367065,-67.749939 -129.547424,-78.534973c-31.230896,-10.80304 -130.656982,22.253113 -130.656982,22.253113z"/>
       <path fill="#000000" stroke="#000000" stroke-width="1.347034" stroke-linecap="round" stroke-linejoin="bevel" stroke-miterlimit="4" id="path4381" d="m610.230103,605.958801c0,0 -60.380676,-71.472351 -92.985474,-82.750305c-31.179932,-10.7854 -145.691986,-33.533722 -145.691986,-33.533722c0,0 119.893616,7.74762 151.073883,18.533051c31.230957,10.80304 87.603638,97.750793 87.603638,97.750793l-0.000061,0.000183z"/>
       <path fill="#ffffff" stroke="#fcfcfc" stroke-width="1.347034" stroke-linecap="round" stroke-linejoin="bevel" stroke-miterlimit="4" id="path4385" d="m653.485535,621.918335c-0.682312,61.962158 -20.501892,106.564087 -31.43042,148.241821c-10.928528,41.677856 -14.06543,55.349426 -6.532227,81.169495c7.53302,25.820129 10.083923,94.457153 -8.066528,79.641724c-18.15033,-14.81543 -38.948364,-12.532471 -57.50592,-19.891541c42.739807,-119.677429 77.067017,-215.386414 103.535034,-289.16156l0.000061,0.000061z"/>
       <path fill="#000000" stroke="#000000" stroke-width="1.347034" stroke-linecap="round" stroke-linejoin="bevel" stroke-miterlimit="4" id="path4387" d="m645.815796,619.173218c-39.019714,48.700745 -51.764587,95.934143 -69.8526,135.135864c-18.088318,39.20105 -24.370728,51.784424 -46.722168,67.267639c-22.351135,15.482788 -68.151093,67.39502 -44.551483,67.021301c23.599945,-0.373596 38.348846,14.204834 57.506195,19.891357c43.089111,-119.556213 77.152039,-215.540955 103.620056,-289.316162z"/>
       <path fill="#ffffff" stroke="#fcfcfc" stroke-width="1.347034" stroke-linecap="round" stroke-linejoin="bevel" stroke-miterlimit="4" id="path4367" d="m635.226746,1094.287964c0,0 -38.072205,-117.145813 -101.095825,-138.632385l-19.850708,55.330811c57.85968,20.013855 120.946533,83.301575 120.946533,83.301575z"/>
       <path fill="#000000" stroke="#000000" stroke-width="1.347034" stroke-linecap="round" stroke-linejoin="bevel" stroke-miterlimit="4" id="path4416" d="m359.198212,998.807922c0,0 104.441711,-67.848877 167.265472,-45.80481l-19.850922,55.330811c-57.859863,-20.013916 -147.414551,-9.526001 -147.414551,-9.526001z"/>
      </g>
      <g externalResourcesRequired="false" transform="matrix(7.68361 0.784665 -0.784665 7.68361 -142.138 -422.856)" id="svg_35">
       <path style="vector-effect: non-scaling-stroke; " transform="rotate(-16.887 172.278 107.086)" fill="#ffffff" stroke="#000000" stroke-width="1.347034" stroke-linecap="round" stroke-linejoin="round" stroke-miterlimit="4" id="path2849" d="m169.392502,51.601578c-33.752502,2.70821 -47.650482,-0.605518 -44.675369,28.510811c2.905243,28.432533 8.232605,52.683128 20.641724,66.32856c12.439972,13.679352 29.2052,18.732025 34.310852,18.322327c5.105652,-0.409637 21.938782,-8.158173 31.403625,-23.595123c9.205154,-15.01342 10.766571,-39.401024 7.783417,-68.59584c-2.975098,-29.116314 -16.606995,-23.607121 -49.464249,-20.970734z"/>
       <path style="vector-effect: non-scaling-stroke; " transform="rotate(-17.0288 193.514 100.541)" fill="#000000" stroke="#000000" stroke-width="0" stroke-linecap="round" stroke-linejoin="round" stroke-miterlimit="4" id="path3366" d="m167.092972,45.528809c54.513992,-7.790688 48.562164,0.10416 52.138153,31.855659c3.577011,31.751785 -2.992371,58.360802 -11.493362,65.307808c-8.501007,6.945999 -22.424637,13.643295 -26.957642,15.649292l-13.979996,-111.856598l0.292847,-0.956161z"/>
       <path style="vector-effect: non-scaling-stroke; " transform="rotate(-17.0288 174.881 139.169)" fill="#000000" stroke="#000000" stroke-width="1.347034" stroke-linecap="round" stroke-linejoin="round" stroke-miterlimit="4" id="path3694" d="m161.75058,132.110199c0,0 17.231781,14.931274 26.261169,14.082886l-0.996704,-10.864182c-8.306183,0.742325 -25.264465,-3.218704 -25.264465,-3.218704z"/>
       <path style="vector-effect: non-scaling-stroke; " transform="rotate(-17.0288 198.328 129.013)" fill="#ffffff" stroke="#000000" stroke-width="1.347034" stroke-linecap="round" stroke-linejoin="round" stroke-miterlimit="4" id="path3700" d="m210.461487,119.758598c0,0 -14.234283,17.743355 -23.271194,18.50959l-0.996658,-10.864166c8.306183,-0.742325 24.267853,-7.645439 24.267853,-7.645439l0,0.000015z"/>
       <path style="vector-effect: non-scaling-stroke; " transform="rotate(-17.0288 190.232 81.7051)" fill="#fcfcfc" stroke="#000000" stroke-width="1.347034" stroke-linecap="round" stroke-linejoin="round" stroke-miterlimit="4" id="path3641" d="m175.193253,85.798302c-0.198441,-2.163239 2.034927,-4.625938 8.171539,-7.273224c6.376724,-2.7509 21.718796,-4.122009 21.917252,-1.958771c0.13266,1.44619 -14.627625,9.158821 -21.123444,10.61174c-6.500702,1.45401 -8.782898,0.60894 -8.965347,-1.37973l0,-0.000015z"/>
       <path style="vector-effect: non-scaling-stroke; " transform="rotate(-17.0288 147.459 98.7295)" fill="#000000" stroke="#000000" stroke-width="1.347034" stroke-linecap="round" stroke-linejoin="round" stroke-miterlimit="4" id="path4150" d="m163.094391,100.430092c-0.198486,-2.163239 -2.843704,-4.189934 -9.362274,-5.706261c-6.77359,-1.575607 -22.115662,-0.204483 -21.917221,1.958786c0.13266,1.446144 16.056503,6.41655 22.711044,6.694221c6.659653,0.27787 8.750885,-0.958061 8.568451,-2.946747z"/>
       <path style="vector-effect: non-scaling-stroke; " transform="rotate(-17.0288 186.45 70.0718)" fill="#ffffff" stroke="#ffffff" stroke-width="1.347034" stroke-linecap="round" stroke-linejoin="round" stroke-miterlimit="4" id="path3660" d="m168.748459,75.208092c0,0 10.377884,-7.608734 15.058487,-8.027054c4.476135,-0.400032 20.3452,0.408829 20.3452,0.408829c0,0 -16.071716,-3.017853 -20.547836,-2.617813c-4.483444,0.400688 -14.85585,10.236038 -14.85585,10.236038z"/>
       <path style="vector-effect: non-scaling-stroke; " transform="rotate(-17.0288 141.972 86.2408)" fill="#000000" stroke="#000000" stroke-width="1.347034" stroke-linecap="round" stroke-linejoin="round" stroke-miterlimit="4" id="path4156" d="m160.079285,89.966171c0,0 -11.59375,-5.645149 -16.274414,-5.22683c-4.47612,0.40004 -19.939896,4.009132 -19.939896,4.009132c0,0 15.261154,-5.818092 19.737259,-6.218117c4.483459,-0.400681 16.477051,7.435814 16.477051,7.435814z"/>
       <path style="vector-effect: non-scaling-stroke; " transform="rotate(-17.0288 178.972 101.154)" fill="#fffcfc" stroke="#000000" stroke-width="1.347034" stroke-linecap="round" stroke-linejoin="round" stroke-miterlimit="4" id="path4176" d="m172.336121,79.868973c3.499329,7.902191 3.630157,14.686859 4.690369,20.5961c1.060196,5.909241 1.463364,7.82222 3.887421,10.671669c2.424042,2.849442 6.708862,11.415352 3.609497,10.564812c-3.099335,-0.850571 -5.536957,0.618988 -8.255371,0.73777c-1.641052,-17.61261 -2.935272,-31.706192 -3.931915,-42.570351l0,0z"/>
       <path style="vector-effect: non-scaling-stroke; " transform="rotate(-17.0288 170.926 104.182)" fill="#000000" stroke="#000000" stroke-width="1.347034" stroke-linecap="round" stroke-linejoin="round" stroke-miterlimit="4" id="path4190" d="m171.763611,82.444794c-2.004272,8.394043 -0.847168,15.111359 -0.814758,21.112434c0.03241,6.00106 -0.015991,7.95443 -1.882111,11.187263c-1.866058,3.23288 -4.522324,12.41909 -1.628143,11.032875c2.894165,-1.3862 5.55957,-0.372673 8.255371,-0.737762c-1.590851,-17.617081 -2.933655,-31.730667 -3.930328,-42.59481l-0.000031,0z"/>
      </g>
     </g>
    </g>
   </g>
  </g>
 </g>
</svg>