<?xml version="1.0" encoding="UTF-8" standalone="no"?>
<!-- Created with Inkscape (http://www.inkscape.org/) -->

<svg
   xmlns:dc="http://purl.org/dc/elements/1.1/"
   xmlns:cc="http://creativecommons.org/ns#"
   xmlns:rdf="http://www.w3.org/1999/02/22-rdf-syntax-ns#"
   xmlns:svg="http://www.w3.org/2000/svg"
   xmlns="http://www.w3.org/2000/svg"
   xmlns:sodipodi="http://sodipodi.sourceforge.net/DTD/sodipodi-0.dtd"
   xmlns:inkscape="http://www.inkscape.org/namespaces/inkscape"
   id="svg3582"
   version="1.1"
   inkscape:version="0.48.4 r9939"
   width="1052.3622"
   height="744.09446"
   xml:space="preserve"
   sodipodi:docname="temp2.pdf"><metadata
     id="metadata3588"><rdf:RDF><cc:Work
         rdf:about=""><dc:format>image/svg+xml</dc:format><dc:type
           rdf:resource="http://purl.org/dc/dcmitype/StillImage" /><dc:title></dc:title></cc:Work></rdf:RDF></metadata><defs
     id="defs3586" /><sodipodi:namedview
     pagecolor="#ffffff"
     bordercolor="#666666"
     borderopacity="1"
     objecttolerance="10"
     gridtolerance="10"
     guidetolerance="10"
     inkscape:pageopacity="0"
     inkscape:pageshadow="2"
     inkscape:window-width="640"
     inkscape:window-height="480"
     id="namedview3584"
     showgrid="false"
     inkscape:zoom="0.27176955"
     inkscape:cx="526.18109"
     inkscape:cy="372.04724"
     inkscape:window-x="0"
     inkscape:window-y="49"
     inkscape:window-maximized="0"
     inkscape:current-layer="g3590" /><g
     id="g3590"
     inkscape:groupmode="layer"
     inkscape:label="temp2"
     transform="matrix(1.25,0,0,-1.25,0,744.09446)"><g
       id="g3592"
       transform="scale(1,-1)"><path
         d="m 526.22461,-282.66992 c 0,1.96484 -1.59375,3.55859 -3.55859,3.55859 0,0 -202.82129,0 -202.82129,0 -1.96582,0 -3.55957,-1.59375 -3.55957,-3.55859 0,0 0,-27.96875 0,-27.96875 0,-1.96485 1.59375,-3.5586 3.55957,-3.5586 0,0 202.82129,0 202.82129,0 1.96484,0 3.55859,1.59375 3.55859,3.5586 0,0 0,27.96875 0,27.96875 z"
         style="fill:#ffffff;fill-opacity:1;fill-rule:nonzero;stroke:none"
         id="path3594" /><path
         d="m 526.22461,-282.66992 c 0,1.96484 -1.59375,3.55859 -3.55859,3.55859 0,0 -202.82129,0 -202.82129,0 -1.96582,0 -3.55957,-1.59375 -3.55957,-3.55859 0,0 0,-27.96875 0,-27.96875 0,-1.96485 1.59375,-3.5586 3.55957,-3.5586 0,0 202.82129,0 202.82129,0 1.96484,0 3.55859,1.59375 3.55859,3.5586 0,0 0,27.96875 0,27.96875 z"
         style="fill:none;stroke:#000000;stroke-opacity:1;stroke-width:1;stroke-linecap:butt;stroke-linejoin:miter;stroke-miterlimit:4;stroke-dasharray:none"
         id="path3596" /><path
         d="m 367.52441,-293.6543 c 0,0 0,-5.39062 0,-5.39062 0,0 0.71094,0 0.71094,0 0,0 0,5.39062 0,5.39062 0,0 -0.71094,0 -0.71094,0 z"
         style="fill:#5f3fff;fill-opacity:1;fill-rule:nonzero;stroke:none"
         id="path3598" /><path
         d="m 369.41406,-293.6543 c 0,0 0,-3.90625 0,-3.90625 0,0 0.60157,0 0.60157,0 0,0 0,0.55518 0,0.55518 0.28613,-0.42725 0.69921,-0.64111 1.23925,-0.64111 0.23487,0 0.4502,0.0425 0.64746,0.12695 0.19629,0.0845 0.34375,0.19531 0.44141,0.33252 0.0977,0.13721 0.1665,0.30029 0.20557,0.48877 0.0244,0.12256 0.0366,0.33691 0.0366,0.64355 0,0 0,2.40039 0,2.40039 0,0 -0.66406,0 -0.66406,0 0,0 0,-2.37695 0,-2.37695 0,-0.26953 -0.0259,-0.47168 -0.0771,-0.60547 -0.0513,-0.1333 -0.14209,-0.24023 -0.27295,-0.31982 -0.13086,-0.0796 -0.28418,-0.11963 -0.45996,-0.11963 -0.28077,0 -0.52344,0.0898 -0.72754,0.26855 -0.2041,0.1792 -0.30615,0.51905 -0.30615,1.01953 0,0 0,2.13379 0,2.13379 0,0 -0.66407,0 -0.66407,0 z"
         style="fill:#5f3fff;fill-opacity:1;fill-rule:nonzero;stroke:none"
         id="path3600" /><path
         d="m 373.33789,-294.82617 c 0,0 0.65625,-0.10156 0.65625,-0.10156 0.0366,0.26171 0.13867,0.46289 0.30664,0.60351 0.16797,0.13867 0.40235,0.20899 0.70313,0.20899 0.30371,0 0.52929,-0.0615 0.67578,-0.18457 0.14746,-0.12403 0.2207,-0.26856 0.2207,-0.43458 0,-0.14843 -0.0654,-0.26562 -0.19629,-0.35058 -0.0918,-0.0586 -0.31738,-0.13281 -0.67676,-0.22363 -0.48437,-0.12207 -0.82031,-0.22852 -1.00781,-0.31836 -0.18799,-0.0889 -0.33008,-0.21289 -0.42676,-0.3711 -0.0972,-0.1582 -0.1455,-0.33203 -0.1455,-0.52343 0,-0.17383 0.04,-0.33497 0.11914,-0.4834 0.0801,-0.14844 0.18847,-0.27149 0.32568,-0.36963 0.10303,-0.0757 0.24316,-0.14014 0.42041,-0.19287 0.17773,-0.0527 0.36816,-0.0791 0.57178,-0.0791 0.30615,0 0.57519,0.0439 0.80664,0.13232 0.23144,0.0879 0.40234,0.20752 0.51269,0.35791 0.11035,0.15039 0.18604,0.35156 0.22803,0.60352 0,0 -0.64844,0.0859 -0.64844,0.0859 -0.0293,-0.19873 -0.11425,-0.354 -0.25488,-0.46533 -0.14062,-0.11182 -0.33984,-0.16748 -0.59668,-0.16748 -0.30322,0 -0.51953,0.0498 -0.64941,0.1499 -0.1294,0.1001 -0.19434,0.21729 -0.19434,0.35108 0,0.0859 0.0269,0.16259 0.0806,0.23047 0.0542,0.0713 0.13818,0.12988 0.25342,0.17578 0.0659,0.0244 0.26025,0.0811 0.58349,0.16894 0.46729,0.125 0.79346,0.22656 0.97901,0.30664 0.18554,0.0791 0.33154,0.19532 0.43701,0.34766 0.10595,0.15137 0.15869,0.33984 0.15869,0.56543 0,0.2207 -0.0645,0.42871 -0.19287,0.62305 -0.12891,0.19531 -0.31446,0.3457 -0.55713,0.45214 -0.24268,0.10743 -0.51709,0.16016 -0.82324,0.16016 -0.50733,0 -0.89405,-0.10547 -1.16016,-0.31738 -0.26563,-0.21094 -0.43555,-0.52442 -0.50879,-0.94043 z"
         style="fill:#5f3fff;fill-opacity:1;fill-rule:nonzero;stroke:none"
         id="path3602" /><path
         d="m 377.86182,-295.98242 c 0,0 2.1875,0 2.1875,0 -0.0298,-0.32715 -0.11328,-0.57276 -0.25098,-0.73633 -0.21143,-0.25391 -0.48584,-0.38086 -0.82275,-0.38086 -0.30469,0 -0.56104,0.10156 -0.76905,0.3042 -0.20752,0.20264 -0.32275,0.47363 -0.34472,0.81299 z m 2.18017,1.07031 c 0,0 0.68067,0.0859 0.68067,0.0859 -0.10791,0.39844 -0.30762,0.70801 -0.59961,0.92773 -0.292,0.22071 -0.66504,0.33008 -1.11817,0.33008 -0.57177,0 -1.0249,-0.17578 -1.35937,-0.52734 -0.33496,-0.35157 -0.50244,-0.84375 -0.50244,-1.47852 0,-0.65625 0.16943,-1.16601 0.50781,-1.52832 0.33838,-0.36279 0.77734,-0.54394 1.31689,-0.54394 0.52246,0 0.94922,0.17773 1.28028,0.5332 0.33105,0.35596 0.49658,0.85644 0.49658,1.50098 0,0.04 -0.001,0.0986 -0.003,0.17675 0,0 -2.91846,0 -2.91846,0 0.0244,0.42676 0.14649,0.75391 0.36573,0.98047 0.21875,0.22656 0.49218,0.33985 0.81933,0.33985 0.24414,0 0.45215,-0.0635 0.62403,-0.18946 0.17285,-0.12695 0.30908,-0.33008 0.41015,-0.60742 z"
         style="fill:#5f3fff;fill-opacity:1;fill-rule:nonzero;stroke:none"
         id="path3604" /><path
         d="m 381.55127,-293.6543 c 0,0 0,-3.90625 0,-3.90625 0,0 0.60156,0 0.60156,0 0,0 0,0.59766 0,0.59766 0.15088,-0.27832 0.29053,-0.46191 0.41797,-0.55078 0.12793,-0.0884 0.26856,-0.13281 0.42188,-0.13281 0.22168,0 0.44677,0.0708 0.67578,0.21191 0,0 -0.23487,0.61133 -0.23487,0.61133 -0.15966,-0.0908 -0.31933,-0.13574 -0.47949,-0.13574 -0.14258,0 -0.27148,0.0435 -0.38476,0.13037 -0.11426,0.0869 -0.19532,0.20752 -0.24414,0.36181 -0.0732,0.23438 -0.10987,0.49219 -0.10987,0.77149 0,0 0,2.04101 0,2.04101 0,0 -0.66406,0 -0.66406,0 z"
         style="fill:#5f3fff;fill-opacity:1;fill-rule:nonzero;stroke:none"
         id="path3606" /><path
         d="m 385.5127,-294.24316 c 0,0 0.0859,0.58496 0.0859,0.58496 -0.18652,0.0391 -0.35351,0.0586 -0.50097,0.0586 -0.24073,0 -0.42725,-0.0381 -0.56006,-0.11426 -0.13233,-0.0762 -0.22608,-0.17578 -0.27979,-0.2998 -0.0542,-0.12403 -0.0811,-0.38477 -0.0811,-0.78223 0,0 0,-2.24902 0,-2.24902 0,0 -0.49219,0 -0.49219,0 0,0 0,-0.51563 0,-0.51563 0,0 0.49219,0 0.49219,0 0,0 0,-0.96728 0,-0.96728 0,0 0.66406,-0.39697 0.66406,-0.39697 0,0 0,1.36425 0,1.36425 0,0 0.67188,0 0.67188,0 0,0 0,0.51563 0,0.51563 0,0 -0.67188,0 -0.67188,0 0,0 0,2.28711 0,2.28711 0,0.18847 0.0117,0.31054 0.0352,0.36426 0.0234,0.0537 0.062,0.0967 0.11523,0.1289 0.0532,0.0322 0.12891,0.0479 0.22852,0.0479 0.0742,0 0.17187,-0.009 0.29297,-0.0264 z"
         style="fill:#5f3fff;fill-opacity:1;fill-rule:nonzero;stroke:none"
         id="path3608" /><path
         d="m 388.22168,-292.14844 c 0,0 -0.0703,-0.61133 -0.0703,-0.61133 0.14453,0.0391 0.27099,0.0586 0.3789,0.0586 0.14746,0 0.26514,-0.0244 0.35352,-0.0742 0.0884,-0.0488 0.16064,-0.11719 0.21728,-0.20606 0.0415,-0.0664 0.10889,-0.23144 0.20264,-0.49414 0.0117,-0.0361 0.0312,-0.0908 0.0586,-0.16211 0,0 -1.48437,-3.92285 -1.48437,-3.92285 0,0 0.70947,0 0.70947,0 0,0 0.81494,2.25879 0.81494,2.25879 0.10596,0.28613 0.20069,0.58789 0.28418,0.90332 0.0762,-0.2998 0.16748,-0.59375 0.27295,-0.88281 0,0 0.83252,-2.2793 0.83252,-2.2793 0,0 0.66162,0 0.66162,0 0,0 -1.47656,3.97461 -1.47656,3.97461 -0.16016,0.42871 -0.28467,0.72364 -0.37353,0.88574 -0.11817,0.21778 -0.25342,0.37793 -0.40625,0.4795 -0.15284,0.10156 -0.33497,0.15234 -0.54688,0.15234 -0.12793,0 -0.271,-0.0264 -0.42871,-0.0801 z"
         style="fill:#5f3fff;fill-opacity:1;fill-rule:nonzero;stroke:none"
         id="path3610" /><path
         d="m 392.44922,-295.60938 c 0,0.5 0.10889,0.87305 0.32715,1.1211 0.21777,0.24902 0.49218,0.37305 0.82324,0.37305 0.32812,0 0.60156,-0.125 0.81934,-0.375 0.21777,-0.24903 0.32714,-0.62891 0.32714,-1.14063 0,-0.48242 -0.10986,-0.84766 -0.3291,-1.09619 -0.21924,-0.24854 -0.4917,-0.37256 -0.81738,-0.37256 -0.33106,0 -0.60547,0.12354 -0.82324,0.37061 -0.21826,0.24755 -0.32715,0.6206 -0.32715,1.11962 z m -0.67969,0.002 c 0,-0.72266 0.20068,-1.25781 0.60254,-1.60547 0.33594,-0.28906 0.74463,-0.43359 1.22754,-0.43359 0.53613,0 0.97461,0.17578 1.31543,0.52734 0.34033,0.35156 0.51074,0.83691 0.51074,1.45703 0,0.50195 -0.0752,0.89648 -0.22607,1.18457 -0.15088,0.28809 -0.36963,0.51074 -0.65772,0.6709 -0.28808,0.1582 -0.60205,0.23828 -0.94238,0.23828 -0.54639,0 -0.98828,-0.1748 -1.32471,-0.52539 -0.33691,-0.34961 -0.50537,-0.85449 -0.50537,-1.51367 z"
         style="fill:#5f3fff;fill-opacity:1;fill-rule:nonzero;stroke:none"
         id="path3612" /><path
         d="m 398.76318,-293.6543 c 0,0 0,-0.57617 0,-0.57617 -0.30371,0.44141 -0.7163,0.66211 -1.2373,0.66211 -0.22998,0 -0.44483,-0.0439 -0.64453,-0.13281 -0.19971,-0.0879 -0.34766,-0.19922 -0.44434,-0.33203 -0.0967,-0.13379 -0.16455,-0.29688 -0.20361,-0.49121 -0.0274,-0.12989 -0.0405,-0.33497 -0.0405,-0.61719 0,0 0,-2.41895 0,-2.41895 0,0 0.66406,0 0.66406,0 0,0 0,2.16504 0,2.16504 0,0.34473 0.0132,0.57813 0.0405,0.69824 0.041,0.17383 0.1294,0.31055 0.26367,0.41016 0.13428,0.0986 0.3003,0.14844 0.49805,0.14844 0.19824,0 0.38379,-0.0508 0.55713,-0.15235 0.17334,-0.10156 0.29639,-0.24023 0.36865,-0.41601 0.0718,-0.17481 0.10791,-0.42871 0.10791,-0.76172 0,0 0,-2.0918 0,-2.0918 0,0 0.66406,0 0.66406,0 0,0 0,3.90625 0,3.90625 0,0 -0.59375,0 -0.59375,0 z"
         style="fill:#5f3fff;fill-opacity:1;fill-rule:nonzero;stroke:none"
         id="path3614" /><path
         d="m 400.39014,-293.6543 c 0,0 0,-3.90625 0,-3.90625 0,0 0.60156,0 0.60156,0 0,0 0,0.59766 0,0.59766 0.15088,-0.27832 0.29053,-0.46191 0.41797,-0.55078 0.12793,-0.0884 0.26855,-0.13281 0.42187,-0.13281 0.22168,0 0.44678,0.0708 0.67578,0.21191 0,0 -0.23486,0.61133 -0.23486,0.61133 -0.15967,-0.0908 -0.31933,-0.13574 -0.47949,-0.13574 -0.14258,0 -0.27149,0.0435 -0.38477,0.13037 -0.11425,0.0869 -0.19531,0.20752 -0.24414,0.36181 -0.0732,0.23438 -0.10986,0.49219 -0.10986,0.77149 0,0 0,2.04101 0,2.04101 0,0 -0.66406,0 -0.66406,0 z"
         style="fill:#5f3fff;fill-opacity:1;fill-rule:nonzero;stroke:none"
         id="path3616" /><path
         d="m 404.99902,-293.6543 c 0,0 0,-3.90625 0,-3.90625 0,0 0.66407,0 0.66407,0 0,0 0,3.90625 0,3.90625 0,0 -0.66407,0 -0.66407,0 z m 0,-4.63281 c 0,0 0,-0.75781 0,-0.75781 0,0 0.66407,0 0.66407,0 0,0 0,0.75781 0,0.75781 0,0 -0.66407,0 -0.66407,0 z"
         style="fill:#5f3fff;fill-opacity:1;fill-rule:nonzero;stroke:none"
         id="path3618" /><path
         d="m 406.67285,-293.6543 c 0,0 0,-3.90625 0,-3.90625 0,0 0.60156,0 0.60156,0 0,0 0,0.55518 0,0.55518 0.28614,-0.42725 0.69922,-0.64111 1.23926,-0.64111 0.23487,0 0.4502,0.0425 0.64746,0.12695 0.19629,0.0845 0.34375,0.19531 0.44141,0.33252 0.0977,0.13721 0.1665,0.30029 0.20557,0.48877 0.0244,0.12256 0.0366,0.33691 0.0366,0.64355 0,0 0,2.40039 0,2.40039 0,0 -0.66407,0 -0.66407,0 0,0 0,-2.37695 0,-2.37695 0,-0.26953 -0.0259,-0.47168 -0.0771,-0.60547 -0.0513,-0.1333 -0.14209,-0.24023 -0.27295,-0.31982 -0.13086,-0.0796 -0.28418,-0.11963 -0.45996,-0.11963 -0.28077,0 -0.52344,0.0898 -0.72754,0.26855 -0.20411,0.1792 -0.30616,0.51905 -0.30616,1.01953 0,0 0,2.13379 0,2.13379 0,0 -0.66406,0 -0.66406,0 z"
         style="fill:#5f3fff;fill-opacity:1;fill-rule:nonzero;stroke:none"
         id="path3620" /><path
         d="m 410.59619,-294.82617 c 0,0 0.65625,-0.10156 0.65625,-0.10156 0.0366,0.26171 0.13916,0.46289 0.30664,0.60351 0.16748,0.13867 0.40186,0.20899 0.70362,0.20899 0.30322,0 0.52832,-0.0615 0.67578,-0.18457 0.14648,-0.12403 0.22021,-0.26856 0.22021,-0.43458 0,-0.14843 -0.0654,-0.26562 -0.19678,-0.35058 -0.0913,-0.0586 -0.31689,-0.13281 -0.67627,-0.22363 -0.48437,-0.12207 -0.82031,-0.22852 -1.0083,-0.31836 -0.1875,-0.0889 -0.32959,-0.21289 -0.42675,-0.3711 -0.0967,-0.1582 -0.14502,-0.33203 -0.14502,-0.52343 0,-0.17383 0.0395,-0.33497 0.11963,-0.4834 0.0791,-0.14844 0.18798,-0.27149 0.32519,-0.36963 0.10254,-0.0757 0.24316,-0.14014 0.4209,-0.19287 0.17725,-0.0527 0.36816,-0.0791 0.57129,-0.0791 0.30615,0 0.57519,0.0439 0.80664,0.13232 0.23144,0.0879 0.40234,0.20752 0.51269,0.35791 0.11036,0.15039 0.18653,0.35156 0.22803,0.60352 0,0 -0.64844,0.0859 -0.64844,0.0859 -0.0293,-0.19873 -0.11474,-0.354 -0.25537,-0.46533 -0.14062,-0.11182 -0.33886,-0.16748 -0.5957,-0.16748 -0.30371,0 -0.52002,0.0498 -0.6499,0.1499 -0.1294,0.1001 -0.19434,0.21729 -0.19434,0.35108 0,0.0859 0.0269,0.16259 0.0806,0.23047 0.0537,0.0713 0.13818,0.12988 0.25342,0.17578 0.0659,0.0244 0.26025,0.0811 0.58349,0.16894 0.46729,0.125 0.79346,0.22656 0.97901,0.30664 0.18554,0.0791 0.33154,0.19532 0.43701,0.34766 0.10595,0.15137 0.15869,0.33984 0.15869,0.56543 0,0.2207 -0.0644,0.42871 -0.19287,0.62305 -0.12891,0.19531 -0.31446,0.3457 -0.55713,0.45214 -0.24268,0.10743 -0.51709,0.16016 -0.82324,0.16016 -0.50733,0 -0.89405,-0.10547 -1.15967,-0.31738 -0.26611,-0.21094 -0.43555,-0.52442 -0.50928,-0.94043 z"
         style="fill:#5f3fff;fill-opacity:1;fill-rule:nonzero;stroke:none"
         id="path3622" /><path
         d="m 416.07373,-294.24316 c 0,0 0.0859,0.58496 0.0859,0.58496 -0.18653,0.0391 -0.35352,0.0586 -0.50098,0.0586 -0.24072,0 -0.42724,-0.0381 -0.56006,-0.11426 -0.13232,-0.0762 -0.22558,-0.17578 -0.27978,-0.2998 -0.0542,-0.12403 -0.0811,-0.38477 -0.0811,-0.78223 0,0 0,-2.24902 0,-2.24902 0,0 -0.49218,0 -0.49218,0 0,0 0,-0.51563 0,-0.51563 0,0 0.49218,0 0.49218,0 0,0 0,-0.96728 0,-0.96728 0,0 0.66407,-0.39697 0.66407,-0.39697 0,0 0,1.36425 0,1.36425 0,0 0.67187,0 0.67187,0 0,0 0,0.51563 0,0.51563 0,0 -0.67187,0 -0.67187,0 0,0 0,2.28711 0,2.28711 0,0.18847 0.0117,0.31054 0.0351,0.36426 0.0234,0.0537 0.062,0.0967 0.11524,0.1289 0.0532,0.0322 0.12939,0.0479 0.22802,0.0479 0.0742,0 0.17188,-0.009 0.29346,-0.0264 z"
         style="fill:#5f3fff;fill-opacity:1;fill-rule:nonzero;stroke:none"
         id="path3624" /><path
         d="m 416.72119,-293.6543 c 0,0 0,-3.90625 0,-3.90625 0,0 0.66406,0 0.66406,0 0,0 0,3.90625 0,3.90625 0,0 -0.66406,0 -0.66406,0 z m 0,-4.63281 c 0,0 0,-0.75781 0,-0.75781 0,0 0.66406,0 0.66406,0 0,0 0,0.75781 0,0.75781 0,0 -0.66406,0 -0.66406,0 z"
         style="fill:#5f3fff;fill-opacity:1;fill-rule:nonzero;stroke:none"
         id="path3626" /><path
         d="m 419.83984,-294.24316 c 0,0 0.0859,0.58496 0.0859,0.58496 -0.18652,0.0391 -0.35351,0.0586 -0.50098,0.0586 -0.24072,0 -0.42724,-0.0381 -0.56005,-0.11426 -0.13233,-0.0762 -0.22608,-0.17578 -0.27979,-0.2998 -0.0542,-0.12403 -0.0811,-0.38477 -0.0811,-0.78223 0,0 0,-2.24902 0,-2.24902 0,0 -0.49219,0 -0.49219,0 0,0 0,-0.51563 0,-0.51563 0,0 0.49219,0 0.49219,0 0,0 0,-0.96728 0,-0.96728 0,0 0.66406,-0.39697 0.66406,-0.39697 0,0 0,1.36425 0,1.36425 0,0 0.67187,0 0.67187,0 0,0 0,0.51563 0,0.51563 0,0 -0.67187,0 -0.67187,0 0,0 0,2.28711 0,2.28711 0,0.18847 0.0117,0.31054 0.0352,0.36426 0.0234,0.0537 0.062,0.0967 0.11523,0.1289 0.0532,0.0322 0.12891,0.0479 0.22852,0.0479 0.0742,0 0.17187,-0.009 0.29296,-0.0264 z"
         style="fill:#5f3fff;fill-opacity:1;fill-rule:nonzero;stroke:none"
         id="path3628" /><path
         d="m 423.04199,-293.6543 c 0,0 0,-0.57617 0,-0.57617 -0.30371,0.44141 -0.71582,0.66211 -1.2373,0.66211 -0.23047,0 -0.44531,-0.0439 -0.64453,-0.13281 -0.19971,-0.0879 -0.34766,-0.19922 -0.44434,-0.33203 -0.0967,-0.13379 -0.16455,-0.29688 -0.20361,-0.49121 -0.0269,-0.12989 -0.0405,-0.33497 -0.0405,-0.61719 0,0 0,-2.41895 0,-2.41895 0,0 0.66406,0 0.66406,0 0,0 0,2.16504 0,2.16504 0,0.34473 0.0137,0.57813 0.04,0.69824 0.042,0.17383 0.12988,0.31055 0.26416,0.41016 0.13428,0.0986 0.30029,0.14844 0.49854,0.14844 0.19824,0 0.38379,-0.0508 0.55664,-0.15235 0.17383,-0.10156 0.2959,-0.24023 0.36816,-0.41601 0.0723,-0.17481 0.1084,-0.42871 0.1084,-0.76172 0,0 0,-2.0918 0,-2.0918 0,0 0.66406,0 0.66406,0 0,0 0,3.90625 0,3.90625 0,0 -0.59375,0 -0.59375,0 z"
         style="fill:#5f3fff;fill-opacity:1;fill-rule:nonzero;stroke:none"
         id="path3630" /><path
         d="m 426.12207,-294.24316 c 0,0 0.0859,0.58496 0.0859,0.58496 -0.18653,0.0391 -0.35352,0.0586 -0.50098,0.0586 -0.24023,0 -0.42773,-0.0381 -0.56055,-0.11426 -0.13183,-0.0762 -0.22558,-0.17578 -0.27929,-0.2998 -0.0547,-0.12403 -0.0811,-0.38477 -0.0811,-0.78223 0,0 0,-2.24902 0,-2.24902 0,0 -0.49218,0 -0.49218,0 0,0 0,-0.51563 0,-0.51563 0,0 0.49218,0 0.49218,0 0,0 0,-0.96728 0,-0.96728 0,0 0.66407,-0.39697 0.66407,-0.39697 0,0 0,1.36425 0,1.36425 0,0 0.67187,0 0.67187,0 0,0 0,0.51563 0,0.51563 0,0 -0.67187,0 -0.67187,0 0,0 0,2.28711 0,2.28711 0,0.18847 0.0117,0.31054 0.0351,0.36426 0.0234,0.0537 0.0615,0.0967 0.11524,0.1289 0.0537,0.0322 0.1289,0.0479 0.22851,0.0479 0.0742,0 0.17188,-0.009 0.29297,-0.0264 z"
         style="fill:#5f3fff;fill-opacity:1;fill-rule:nonzero;stroke:none"
         id="path3632" /><path
         d="m 426.76953,-293.6543 c 0,0 0,-3.90625 0,-3.90625 0,0 0.66406,0 0.66406,0 0,0 0,3.90625 0,3.90625 0,0 -0.66406,0 -0.66406,0 z m 0,-4.63281 c 0,0 0,-0.75781 0,-0.75781 0,0 0.66406,0 0.66406,0 0,0 0,0.75781 0,0.75781 0,0 -0.66406,0 -0.66406,0 z"
         style="fill:#5f3fff;fill-opacity:1;fill-rule:nonzero;stroke:none"
         id="path3634" /><path
         d="m 428.87305,-295.60938 c 0,0.5 0.1084,0.87305 0.32617,1.1211 0.21875,0.24902 0.49219,0.37305 0.82422,0.37305 0.32812,0 0.60058,-0.125 0.81836,-0.375 0.21875,-0.24903 0.32812,-0.62891 0.32812,-1.14063 0,-0.48242 -0.11035,-0.84766 -0.33008,-1.09619 -0.21875,-0.24854 -0.49121,-0.37256 -0.8164,-0.37256 -0.33203,0 -0.60547,0.12354 -0.82422,0.37061 -0.21777,0.24755 -0.32617,0.6206 -0.32617,1.11962 z m -0.67969,0.002 c 0,-0.72266 0.20019,-1.25781 0.60156,-1.60547 0.33594,-0.28906 0.74512,-0.43359 1.22852,-0.43359 0.53613,0 0.97461,0.17578 1.31445,0.52734 0.34082,0.35156 0.51172,0.83691 0.51172,1.45703 0,0.50195 -0.0762,0.89648 -0.22656,1.18457 -0.15039,0.28809 -0.37012,0.51074 -0.65821,0.6709 -0.28711,0.1582 -0.60156,0.23828 -0.9414,0.23828 -0.54688,0 -0.98828,-0.1748 -1.3252,-0.52539 -0.33691,-0.34961 -0.50488,-0.85449 -0.50488,-1.51367 z"
         style="fill:#5f3fff;fill-opacity:1;fill-rule:nonzero;stroke:none"
         id="path3636" /><path
         d="m 432.63281,-293.6543 c 0,0 0,-3.90625 0,-3.90625 0,0 0.60157,0 0.60157,0 0,0 0,0.55518 0,0.55518 0.28515,-0.42725 0.69921,-0.64111 1.23828,-0.64111 0.23535,0 0.45117,0.0425 0.64746,0.12695 0.19726,0.0845 0.34472,0.19531 0.44238,0.33252 0.0977,0.13721 0.16602,0.30029 0.20508,0.48877 0.0244,0.12256 0.0371,0.33691 0.0371,0.64355 0,0 0,2.40039 0,2.40039 0,0 -0.66406,0 -0.66406,0 0,0 0,-2.37695 0,-2.37695 0,-0.26953 -0.0264,-0.47168 -0.0781,-0.60547 -0.0508,-0.1333 -0.1416,-0.24023 -0.27246,-0.31982 -0.13086,-0.0796 -0.28418,-0.11963 -0.45996,-0.11963 -0.28125,0 -0.52344,0.0898 -0.72754,0.26855 -0.2041,0.1792 -0.30566,0.51905 -0.30566,1.01953 0,0 0,2.13379 0,2.13379 0,0 -0.66407,0 -0.66407,0 z"
         style="fill:#5f3fff;fill-opacity:1;fill-rule:nonzero;stroke:none"
         id="path3638" /><path
         d="m 439.31348,-295.61523 c -0.24121,0.0976 -0.60254,0.18164 -1.08301,0.25 -0.27344,0.0391 -0.46582,0.084 -0.5791,0.13281 -0.11231,0.0488 -0.2002,0.12109 -0.26172,0.21484 -0.0615,0.0947 -0.0918,0.2002 -0.0918,0.31543 0,0.17676 0.0674,0.32324 0.2002,0.44141 0.13379,0.11816 0.3291,0.17676 0.58691,0.17676 0.25488,0 0.48145,-0.0557 0.68067,-0.16797 0.19824,-0.11133 0.34375,-0.26368 0.4375,-0.45703 0.0713,-0.1504 0.10644,-0.3711 0.10644,-0.66309 0,0 0.004,-0.24316 0.004,-0.24316 z m 0.0547,1.46875 c -0.24707,0.21093 -0.48437,0.36035 -0.71093,0.44726 -0.22657,0.0879 -0.46973,0.13086 -0.7295,0.13086 -0.42773,0 -0.75781,-0.10449 -0.98828,-0.31445 -0.22949,-0.20899 -0.34472,-0.47657 -0.34472,-0.80176 0,-0.19043 0.0439,-0.36523 0.12988,-0.52246 0.0879,-0.1582 0.20117,-0.28516 0.3418,-0.38086 0.14062,-0.0957 0.2998,-0.16699 0.47656,-0.2168 0.12891,-0.0332 0.32519,-0.0664 0.58789,-0.0986 0.5332,-0.0635 0.92676,-0.13965 1.17871,-0.22754 0.003,-0.0908 0.004,-0.14844 0.004,-0.17285 0,-0.27051 -0.0625,-0.46045 -0.18653,-0.57129 -0.16894,-0.14941 -0.41992,-0.22461 -0.75195,-0.22461 -0.31055,0 -0.53906,0.0547 -0.68652,0.16357 -0.14746,0.10889 -0.25684,0.30176 -0.32813,0.57862 0,0 -0.64844,-0.0859 -0.64844,-0.0859 0.0586,-0.27734 0.15528,-0.50098 0.29004,-0.67139 0.13477,-0.17041 0.33008,-0.30175 0.58594,-0.39355 0.25391,-0.0923 0.54981,-0.13818 0.88574,-0.13818 0.33301,0 0.6045,0.0391 0.81348,0.11767 0.20801,0.0786 0.36133,0.17725 0.45898,0.29639 0.0977,0.11865 0.167,0.26904 0.20606,0.45019 0.0225,0.1128 0.0332,0.31641 0.0332,0.61035 0,0 0,0.88184 0,0.88184 0,0.61524 0.0137,1.00488 0.041,1.16699 0.0273,0.16309 0.0811,0.31934 0.16211,0.46875 0,0 -0.69532,0 -0.69532,0 -0.0654,-0.14062 -0.10644,-0.30468 -0.125,-0.49218 z"
         style="fill:#5f3fff;fill-opacity:1;fill-rule:nonzero;stroke:none"
         id="path3640" /><path
         d="m 440.99512,-293.6543 c 0,0 0,-5.39062 0,-5.39062 0,0 0.66406,0 0.66406,0 0,0 0,5.39062 0,5.39062 0,0 -0.66406,0 -0.66406,0 z"
         style="fill:#5f3fff;fill-opacity:1;fill-rule:nonzero;stroke:none"
         id="path3642" /><path
         d="m 444.76172,-293.6543 c 0,0 0,-5.39062 0,-5.39062 0,0 0.66406,0 0.66406,0 0,0 0,5.39062 0,5.39062 0,0 -0.66406,0 -0.66406,0 z"
         style="fill:#5f3fff;fill-opacity:1;fill-rule:nonzero;stroke:none"
         id="path3644" /><path
         d="m 446.88086,-295.60938 c 0,0.5 0.1084,0.87305 0.32617,1.1211 0.21875,0.24902 0.49219,0.37305 0.82422,0.37305 0.32813,0 0.60059,-0.125 0.81836,-0.375 0.21875,-0.24903 0.32812,-0.62891 0.32812,-1.14063 0,-0.48242 -0.11035,-0.84766 -0.33007,-1.09619 -0.21875,-0.24854 -0.49121,-0.37256 -0.81641,-0.37256 -0.33203,0 -0.60547,0.12354 -0.82422,0.37061 -0.21777,0.24755 -0.32617,0.6206 -0.32617,1.11962 z m -0.67969,0.002 c 0,-0.72266 0.2002,-1.25781 0.60156,-1.60547 0.33594,-0.28906 0.74512,-0.43359 1.22852,-0.43359 0.53613,0 0.97461,0.17578 1.31445,0.52734 0.34082,0.35156 0.51172,0.83691 0.51172,1.45703 0,0.50195 -0.0762,0.89648 -0.22656,1.18457 -0.15039,0.28809 -0.37012,0.51074 -0.6582,0.6709 -0.28711,0.1582 -0.60157,0.23828 -0.94141,0.23828 -0.54687,0 -0.98828,-0.1748 -1.3252,-0.52539 -0.33691,-0.34961 -0.50488,-0.85449 -0.50488,-1.51367 z"
         style="fill:#5f3fff;fill-opacity:1;fill-rule:nonzero;stroke:none"
         id="path3646" /><path
         d="m 451.06152,-295.67578 c 0,0.51172 0.10254,0.88672 0.30567,1.12109 0.2041,0.23633 0.45996,0.35352 0.7666,0.35352 0.30469,0 0.56055,-0.11719 0.7666,-0.35156 0.20703,-0.23438 0.30957,-0.60157 0.30957,-1.10157 0,-0.47851 -0.10644,-0.83838 -0.31933,-1.08105 -0.21192,-0.24268 -0.46778,-0.36426 -0.76758,-0.36426 -0.29492,0 -0.54492,0.11963 -0.75196,0.3584 -0.20605,0.23926 -0.30957,0.59473 -0.30957,1.06543 z m -0.54687,2.34961 c 0,0 0.64062,0.0859 0.64062,0.0859 0.0274,0.20117 0.10254,0.34765 0.22559,0.43945 0.16406,0.12305 0.38965,0.18555 0.6748,0.18555 0.30762,0 0.54493,-0.0615 0.71192,-0.1836 0.16797,-0.12305 0.28125,-0.29394 0.33984,-0.51465 0.0342,-0.13476 0.0508,-0.41699 0.0478,-0.84863 -0.29004,0.33887 -0.65039,0.50781 -1.083,0.50781 -0.53711,0 -0.95313,-0.19336 -1.24805,-0.58105 -0.29492,-0.38672 -0.44238,-0.85156 -0.44238,-1.39356 0,-0.37207 0.0674,-0.71582 0.20214,-1.03027 0.13575,-0.31543 0.33204,-0.55859 0.5879,-0.72998 0.25683,-0.17139 0.55859,-0.25732 0.90429,-0.25732 0.46094,0 0.8418,0.1875 1.1416,0.5625 0,0 0,-0.47657 0,-0.47657 0,0 0.60938,0 0.60938,0 0,0 0,3.37696 0,3.37696 0,0.60839 -0.0615,1.03906 -0.18555,1.29296 -0.12402,0.25391 -0.32031,0.45411 -0.58887,0.60157 -0.26953,0.14648 -0.5996,0.2207 -0.99218,0.2207 -0.4668,0 -0.84278,-0.10449 -1.12989,-0.31348 -0.28711,-0.20898 -0.42578,-0.52441 -0.41601,-0.94433 z"
         style="fill:#5f3fff;fill-opacity:1;fill-rule:nonzero;stroke:none"
         id="path3648" /><path
         d="m 455.25879,-295.60938 c 0,0.5 0.1084,0.87305 0.32715,1.1211 0.21777,0.24902 0.49219,0.37305 0.82324,0.37305 0.32812,0 0.60156,-0.125 0.81934,-0.375 0.21777,-0.24903 0.32714,-0.62891 0.32714,-1.14063 0,-0.48242 -0.11035,-0.84766 -0.3291,-1.09619 -0.21875,-0.24854 -0.49218,-0.37256 -0.81738,-0.37256 -0.33105,0 -0.60547,0.12354 -0.82324,0.37061 -0.21875,0.24755 -0.32715,0.6206 -0.32715,1.11962 z m -0.67969,0.002 c 0,-0.72266 0.2002,-1.25781 0.60254,-1.60547 0.33594,-0.28906 0.74414,-0.43359 1.22754,-0.43359 0.53613,0 0.97461,0.17578 1.31543,0.52734 0.33984,0.35156 0.51074,0.83691 0.51074,1.45703 0,0.50195 -0.0752,0.89648 -0.22558,1.18457 -0.15137,0.28809 -0.37012,0.51074 -0.65821,0.6709 -0.28808,0.1582 -0.60156,0.23828 -0.94238,0.23828 -0.5459,0 -0.98828,-0.1748 -1.3252,-0.52539 -0.33593,-0.34961 -0.50488,-0.85449 -0.50488,-1.51367 z"
         style="fill:#5f3fff;fill-opacity:1;fill-rule:nonzero;stroke:none"
         id="path3650" /><path
         d="m 461.11133,-293.6543 c 0,0 0,-5.39062 0,-5.39062 0,0 0.66406,0 0.66406,0 0,0 0,1.93554 0,1.93554 0.30762,-0.35791 0.69531,-0.5371 1.16406,-0.5371 0.28809,0 0.53809,0.0571 0.75,0.17089 0.21289,0.11426 0.36524,0.27149 0.45703,0.47266 0.0908,0.20068 0.13672,0.49219 0.13672,0.87402 0,0 0,2.47461 0,2.47461 0,0 -0.66406,0 -0.66406,0 0,0 0,-2.47363 0,-2.47363 0,-0.33105 -0.0713,-0.57129 -0.21387,-0.72217 -0.1416,-0.15088 -0.34375,-0.22607 -0.60449,-0.22607 -0.19433,0 -0.37695,0.0508 -0.54883,0.15234 -0.17187,0.10205 -0.29394,0.23975 -0.36718,0.41358 -0.0723,0.17431 -0.10938,0.41455 -0.10938,0.72021 0,0 0,2.13574 0,2.13574 0,0 -0.66406,0 -0.66406,0 z"
         style="fill:#5f3fff;fill-opacity:1;fill-rule:nonzero;stroke:none"
         id="path3652" /><path
         d="m 465.79297,-295.98242 c 0,0 2.1875,0 2.1875,0 -0.0293,-0.32715 -0.11328,-0.57276 -0.25098,-0.73633 -0.21191,-0.25391 -0.48535,-0.38086 -0.82226,-0.38086 -0.30567,0 -0.56153,0.10156 -0.76953,0.3042 -0.20801,0.20264 -0.32325,0.47363 -0.34473,0.81299 z m 2.17969,1.07031 c 0,0 0.68164,0.0859 0.68164,0.0859 -0.1084,0.39844 -0.3086,0.70801 -0.59961,0.92773 -0.29297,0.22071 -0.66504,0.33008 -1.11914,0.33008 -0.57129,0 -1.02442,-0.17578 -1.35938,-0.52734 -0.33398,-0.35157 -0.50195,-0.84375 -0.50195,-1.47852 0,-0.65625 0.16894,-1.16601 0.50781,-1.52832 0.33789,-0.36279 0.77735,-0.54394 1.31641,-0.54394 0.52344,0 0.94922,0.17773 1.28125,0.5332 0.33008,0.35596 0.49609,0.85644 0.49609,1.50098 0,0.04 -9.8e-4,0.0986 -0.004,0.17675 0,0 -2.91797,0 -2.91797,0 0.0244,0.42676 0.14648,0.75391 0.36523,0.98047 0.21875,0.22656 0.49219,0.33985 0.82031,0.33985 0.24317,0 0.45118,-0.0635 0.62403,-0.18946 0.17187,-0.12695 0.30859,-0.33008 0.40918,-0.60742 z"
         style="fill:#5f3fff;fill-opacity:1;fill-rule:nonzero;stroke:none"
         id="path3654" /><path
         d="m 469.48242,-293.6543 c 0,0 0,-3.90625 0,-3.90625 0,0 0.60156,0 0.60156,0 0,0 0,0.59766 0,0.59766 0.1504,-0.27832 0.29004,-0.46191 0.41797,-0.55078 0.12696,-0.0884 0.26758,-0.13281 0.42188,-0.13281 0.2207,0 0.44629,0.0708 0.67578,0.21191 0,0 -0.23535,0.61133 -0.23535,0.61133 -0.15918,-0.0908 -0.31934,-0.13574 -0.47949,-0.13574 -0.14258,0 -0.27149,0.0435 -0.38477,0.13037 -0.11426,0.0869 -0.19531,0.20752 -0.24414,0.36181 -0.0732,0.23438 -0.10938,0.49219 -0.10938,0.77149 0,0 0,2.04101 0,2.04101 0,0 -0.66406,0 -0.66406,0 z"
         style="fill:#5f3fff;fill-opacity:1;fill-rule:nonzero;stroke:none"
         id="path3656" /><path
         d="m 472.49023,-295.98242 c 0,0 2.1875,0 2.1875,0 -0.0293,-0.32715 -0.11328,-0.57276 -0.25097,-0.73633 -0.21192,-0.25391 -0.48535,-0.38086 -0.82227,-0.38086 -0.30566,0 -0.56152,0.10156 -0.76953,0.3042 -0.20801,0.20264 -0.32324,0.47363 -0.34473,0.81299 z m 2.17969,1.07031 c 0,0 0.68164,0.0859 0.68164,0.0859 -0.1084,0.39844 -0.30859,0.70801 -0.59961,0.92773 -0.29297,0.22071 -0.66504,0.33008 -1.11914,0.33008 -0.57129,0 -1.02441,-0.17578 -1.35937,-0.52734 -0.33399,-0.35157 -0.50196,-0.84375 -0.50196,-1.47852 0,-0.65625 0.16895,-1.16601 0.50782,-1.52832 0.33789,-0.36279 0.77734,-0.54394 1.3164,-0.54394 0.52344,0 0.94922,0.17773 1.28125,0.5332 0.33008,0.35596 0.4961,0.85644 0.4961,1.50098 0,0.04 -9.8e-4,0.0986 -0.004,0.17675 0,0 -2.91797,0 -2.91797,0 0.0244,0.42676 0.14649,0.75391 0.36524,0.98047 0.21875,0.22656 0.49218,0.33985 0.82031,0.33985 0.24316,0 0.45117,-0.0635 0.62402,-0.18946 0.17188,-0.12695 0.3086,-0.33008 0.40918,-0.60742 z"
         style="fill:#5f3fff;fill-opacity:1;fill-rule:nonzero;stroke:none"
         id="path3658" /></g></g></svg>